<svg width="22" height="22" viewBox="0 0 22 22" fill="none" xmlns="http://www.w3.org/2000/svg">
<path d="M7.42718 17.7347C7.08495 17.6275 6.76736 17.4532 6.49282 17.222C6.21828 16.9908 5.99226 16.7072 5.82786 16.3877C5.62505 16.0026 5.51935 15.5736 5.52 15.1381C5.51657 13.7018 5.4703 12.2632 5.53142 10.8297C5.62567 8.60593 6.72405 7.00124 8.70664 6.0036C8.74548 5.98413 8.78489 5.96523 8.82088 5.94919C8.82781 5.94585 8.834 5.94114 8.83907 5.93534C8.84414 5.92954 8.84799 5.92278 8.85039 5.91545C8.85279 5.90812 8.85369 5.90039 8.85304 5.8927C8.85238 5.88502 8.85018 5.87755 8.84658 5.87073L8.33251 4.87367C8.32268 4.85436 8.30759 4.83824 8.28898 4.82719C8.27038 4.81614 8.24903 4.81061 8.22741 4.81124C7.5814 4.81124 6.89998 4.8164 6.21856 4.81124C5.69592 4.80552 5.36635 4.28952 5.59025 3.83193C5.72048 3.55876 5.94781 3.43677 6.24711 3.43677C6.89027 3.43677 7.53285 3.43391 8.17544 3.44021C8.30167 3.44021 8.35764 3.40756 8.39934 3.27985C8.57761 2.72357 8.92829 2.23886 9.40035 1.89626C9.87241 1.55367 10.4412 1.37107 11.0239 1.37506C12.2177 1.38194 13.2453 2.14935 13.6228 3.31479C13.628 3.33082 13.6343 3.34629 13.6411 3.36404C13.6495 3.38546 13.6641 3.40385 13.683 3.41683C13.702 3.4298 13.7244 3.43675 13.7473 3.43677H14.0861C14.6504 3.43677 15.2147 3.43677 15.7785 3.43677C16.1823 3.43677 16.4845 3.73343 16.489 4.11485C16.4936 4.50542 16.1886 4.80666 15.7739 4.80895C15.0976 4.81411 14.4236 4.81124 13.7839 4.81124C13.7627 4.8112 13.7419 4.81707 13.7239 4.8282C13.7058 4.83932 13.6912 4.85526 13.6817 4.87424L13.1676 5.87131C13.164 5.87825 13.1618 5.88587 13.1612 5.89369C13.1606 5.90152 13.1616 5.90938 13.1642 5.91679C13.1668 5.9242 13.1708 5.931 13.1761 5.93677C13.1814 5.94254 13.1879 5.94716 13.195 5.95034C13.7427 6.19036 14.2472 6.51931 14.6881 6.92392C15.8579 8.01205 16.4702 9.35731 16.4896 10.9569C16.5062 12.36 16.5005 13.7631 16.4896 15.1667C16.4835 15.7256 16.3064 16.269 15.9823 16.7237C15.6581 17.1784 15.2026 17.5223 14.6772 17.7089L14.5841 17.7393C14.5666 17.7449 14.548 17.7461 14.5299 17.7429C14.5117 17.7397 14.4947 17.7321 14.4801 17.7209C14.4655 17.7096 14.4539 17.695 14.4461 17.6783C14.4384 17.6615 14.4348 17.6432 14.4356 17.6248C14.5002 16.3952 14.1529 15.334 13.1602 14.5127C12.5395 14.0048 11.7587 13.7351 10.9577 13.7522C9.91355 13.7722 9.04935 14.192 8.37478 14.9892C7.73163 15.7486 7.53 16.6414 7.5814 17.6236C7.58203 17.6424 7.57803 17.6611 7.56974 17.678C7.56145 17.6949 7.54914 17.7095 7.53389 17.7205C7.51864 17.7315 7.50093 17.7385 7.48232 17.741C7.4637 17.7435 7.44477 17.7413 7.42718 17.7347V17.7347Z" stroke="#A8BBDE" stroke-miterlimit="10"/>
<path d="M10.8476 20.1145L10.8476 20.1145C11.5764 20.2079 12.3152 19.7125 12.491 18.9763L10.8476 20.1145ZM10.8476 20.1145C10.0428 20.0115 9.46356 19.3713 9.4528 18.6074L10.8476 20.1145ZM9.49263 16.8804L9.49263 16.8804C9.43169 17.3479 9.43981 17.825 9.44862 18.3422L9.49263 16.8804ZM9.49263 16.8804C9.58982 16.1347 10.31 15.5675 11.1261 15.6251L9.49263 16.8804ZM12.5574 18.3265V17.8776C12.5574 17.7757 12.5586 17.6811 12.5597 17.5902C12.5618 17.422 12.5638 17.2666 12.5577 17.1019C12.5284 16.333 11.8947 15.6799 11.1264 15.6251L12.5574 18.3265ZM12.5574 18.3265L12.566 18.3274M12.5574 18.3265L12.566 18.3274M12.566 18.3274C12.5636 18.3742 12.5611 18.4188 12.5584 18.4598C12.5459 18.6539 12.5278 18.8222 12.4911 18.9761L12.566 18.3274Z" fill="#1952BB" stroke="#A8BBDE"/>
<path d="M10.9942 8.24614C11.7096 8.24351 12.4216 8.34557 13.1076 8.5491C13.2496 8.59039 13.3737 8.6781 13.4602 8.79827C13.5468 8.91844 13.5907 9.06417 13.5851 9.21228C13.5879 9.35715 13.5421 9.49877 13.455 9.61437C13.3679 9.72997 13.2445 9.81286 13.1048 9.84969C12.9673 9.88406 12.8235 9.88406 12.6861 9.84969C11.5856 9.54699 10.4239 9.54818 9.32408 9.85313C8.92082 9.96309 8.54498 9.75577 8.44502 9.38295C8.34506 9.01012 8.55926 8.6476 8.96594 8.53077C9.62574 8.3427 10.3083 8.24692 10.9942 8.24614Z" fill="white"/>
<path d="M11.005 5.55378C10.7351 5.55501 10.4709 5.476 10.2457 5.32671C10.0206 5.17742 9.84465 4.96457 9.74015 4.71505C9.63564 4.46553 9.60725 4.19055 9.65857 3.92486C9.70989 3.65917 9.83862 3.41469 10.0285 3.22234C10.2183 3.02998 10.4608 2.89838 10.7253 2.84416C10.9897 2.78994 11.2642 2.81554 11.5142 2.91772C11.7641 3.0199 11.9782 3.19408 12.1294 3.41824C12.2807 3.6424 12.3622 3.90648 12.3638 4.1771C12.3649 4.35699 12.3305 4.53531 12.2628 4.70188C12.195 4.86845 12.0952 5.02 11.969 5.14786C11.8428 5.27572 11.6927 5.37738 11.5273 5.44703C11.3619 5.51668 11.1844 5.55296 11.005 5.55378Z" fill="white"/>
<path d="M10.9965 10.9727C11.3478 11.0133 11.6962 11.0402 12.0401 11.0969C12.4702 11.1674 12.7049 11.511 12.6358 11.9119C12.5735 12.2773 12.2268 12.5201 11.8224 12.4496C11.2867 12.3491 10.737 12.348 10.2008 12.4462C9.78616 12.5281 9.43145 12.2778 9.37205 11.9027C9.30922 11.5018 9.54341 11.1702 9.95751 11.1009C10.2997 11.0408 10.6492 11.0139 10.9965 10.9727Z" fill="white"/>
</svg>
