<svg width="22" height="22" viewBox="0 0 22 22" fill="none" xmlns="http://www.w3.org/2000/svg">
<path d="M4.17772 5.02416L4.17777 5.02395C4.31938 4.51396 4.62415 4.06439 5.04547 3.74402C5.46676 3.42368 5.98138 3.25016 6.51062 3.25C6.51067 3.25 6.51071 3.25 6.51075 3.25L15.4894 3.25C16.0188 3.25001 16.5336 3.42348 16.955 3.74385C17.3764 4.06423 17.6813 4.51386 17.8229 5.02395L17.8229 5.02405L20.0366 12.9906C20.4563 14.5036 19.3188 16 17.7485 16H10.4694V9.96875C10.4694 9.1068 10.127 8.28015 9.51753 7.67065C8.90804 7.06116 8.08139 6.71875 7.21944 6.71875H3.70641L4.17772 5.02416ZM16.5014 18.75H10.4701V18.375H16.5014C16.5511 18.375 16.5988 18.3948 16.634 18.4299C16.6691 18.4651 16.6889 18.5128 16.6889 18.5625C16.6889 18.6122 16.6691 18.6599 16.634 18.6951C16.5988 18.7302 16.5511 18.75 16.5014 18.75ZM2.49713 19.5029L2.85068 19.1493L2.49713 19.5029C2.65536 19.6611 2.86997 19.75 3.09375 19.75H7.21875C7.44253 19.75 7.65714 19.6611 7.81537 19.5029L7.46182 19.1493L7.81537 19.5029C7.97361 19.3446 8.0625 19.13 8.0625 18.9062V9.96875C8.0625 9.74497 7.97361 9.53036 7.81537 9.37213C7.65714 9.21389 7.44252 9.125 7.21875 9.125H3.09375C2.86997 9.125 2.65536 9.21389 2.49713 9.37213C2.33889 9.53036 2.25 9.74497 2.25 9.96875V18.9062C2.25 19.13 2.3389 19.3446 2.49713 19.5029ZM1.875 9.96875C1.875 9.64552 2.0034 9.33552 2.23196 9.10696C2.46052 8.8784 2.77052 8.75 3.09375 8.75H7.21875C7.54198 8.75 7.85198 8.8784 8.08054 9.10696C8.3091 9.33552 8.4375 9.64552 8.4375 9.96875V18.9062C8.4375 19.2295 8.3091 19.5395 8.08054 19.768C7.85198 19.9966 7.54198 20.125 7.21875 20.125H3.09375C2.77052 20.125 2.46052 19.9966 2.23196 19.768C2.0034 19.5395 1.875 19.2295 1.875 18.9062V9.96875ZM5.77497 12.9937C5.61087 13.1578 5.38831 13.25 5.15625 13.25C4.92419 13.25 4.70163 13.1578 4.53753 12.9937C4.37344 12.8296 4.28125 12.6071 4.28125 12.375C4.28125 12.1429 4.37344 11.9204 4.53753 11.7563C4.70163 11.5922 4.92419 11.5 5.15625 11.5C5.38831 11.5 5.61087 11.5922 5.77497 11.7563C5.93906 11.9204 6.03125 12.1429 6.03125 12.375C6.03125 12.6071 5.93906 12.8296 5.77497 12.9937Z" fill="#A8BBDE" stroke="#A8BBDE"/>
</svg>
