<svg width="22" height="22" viewBox="0 0 22 22" fill="none" xmlns="http://www.w3.org/2000/svg">
<g clip-path="url(#clip0_2662_17151)">
<path d="M4.15554 10.5403C5.75084 10.5403 7.04876 9.24246 7.04876 7.64712C7.04876 6.05182 5.75084 4.75391 4.15554 4.75391C2.56024 4.75391 1.26233 6.05178 1.26233 7.64712C1.26233 9.24246 2.56024 10.5403 4.15554 10.5403ZM4.15554 6.22064C4.94213 6.22064 5.58206 6.86054 5.58206 7.64716C5.58206 8.43375 4.94213 9.07368 4.15554 9.07368C3.36896 9.07368 2.72902 8.43379 2.72902 7.64716C2.72902 6.86062 3.36896 6.22064 4.15554 6.22064Z" fill="#A8BBDE"/>
<path d="M11 10.5403C12.5953 10.5403 13.8932 9.24246 13.8932 7.64712C13.8932 6.05182 12.5953 4.75391 11 4.75391C9.40473 4.75391 8.10681 6.05178 8.10681 7.64712C8.10681 9.24246 9.40473 10.5403 11 10.5403ZM11 6.22064C11.7866 6.22064 12.4265 6.86054 12.4265 7.64716C12.4265 8.43375 11.7866 9.07368 11 9.07368C10.2134 9.07368 9.57351 8.43379 9.57351 7.64716C9.57351 6.86062 10.2134 6.22064 11 6.22064Z" fill="#A8BBDE"/>
<path d="M17.8445 10.5403C19.4398 10.5403 20.7377 9.24246 20.7377 7.64712C20.7377 6.05182 19.4398 4.75391 17.8445 4.75391C16.2492 4.75391 14.9513 6.05178 14.9513 7.64712C14.9513 9.24251 16.2492 10.5403 17.8445 10.5403ZM17.8445 6.22064C18.6311 6.22064 19.271 6.86054 19.271 7.64716C19.271 8.43375 18.6311 9.07368 17.8445 9.07368C17.058 9.07368 16.418 8.43379 16.418 7.64716C16.418 6.86062 17.0579 6.22064 17.8445 6.22064Z" fill="#A8BBDE"/>
<path d="M14.4222 12.8363C12.7641 10.4329 9.23325 10.4367 7.57775 12.8363C5.26513 9.48422 0 11.1284 0 15.1899V16.5173C0 16.9223 0.328324 17.2507 0.733348 17.2507C1.15315 17.2507 20.8972 17.2507 21.2667 17.2507C21.6717 17.2507 22 16.9224 22 16.5173V15.1899C22 11.1284 16.7343 9.48503 14.4222 12.8363ZM6.84445 15.784H1.46665V15.1899C1.46665 13.7073 2.67287 12.5011 4.15555 12.5011C5.63823 12.5011 6.84445 13.7073 6.84445 15.1899V15.784ZM13.6889 15.784H8.3111V15.1899C8.3111 13.7073 9.51732 12.5011 11 12.5011C12.4827 12.5011 13.6889 13.7073 13.6889 15.1899V15.784ZM20.5333 15.784H15.1555V15.1899C15.1555 13.7073 16.3618 12.5011 17.8444 12.5011C19.3271 12.5011 20.5333 13.7073 20.5333 15.1899V15.784Z" fill="#A8BBDE"/>
</g>
<defs>
<clipPath id="clip0_2662_17151">
<rect width="22" height="22" fill="white"/>
</clipPath>
</defs>
</svg>
