<svg width="24" height="24" viewBox="0 0 24 24" fill="none" xmlns="http://www.w3.org/2000/svg">
<path d="M9.44999 13.4992C9.68868 13.4992 9.9176 13.4044 10.0864 13.2356C10.2552 13.0668 10.35 12.8379 10.35 12.5992C10.35 12.3605 10.2552 12.1316 10.0864 11.9628C9.9176 11.794 9.68868 11.6992 9.44999 11.6992C9.21129 11.6992 8.98237 11.794 8.81359 11.9628C8.64481 12.1316 8.54999 12.3605 8.54999 12.5992C8.54999 12.8379 8.64481 13.0668 8.81359 13.2356C8.98237 13.4044 9.21129 13.4992 9.44999 13.4992Z" fill="#A8BBDE"/>
<path d="M12.6504 3.64258C12.6504 3.54993 12.6301 3.45837 12.5909 3.37419C12.5518 3.29001 12.4947 3.2152 12.4235 3.15488C12.3524 3.09456 12.269 3.05015 12.1789 3.02471C12.0888 2.99927 11.9942 2.99339 11.9016 3.00747L2.80122 4.38312C2.64779 4.40646 2.50787 4.48332 2.40677 4.59981C2.30567 4.7163 2.25006 4.86472 2.25 5.01824V18.9805C2.25006 19.134 2.30567 19.2824 2.40677 19.3989C2.50787 19.5154 2.64779 19.5923 2.80122 19.6156L11.9016 20.9925C11.9942 21.0066 12.0888 21.0007 12.1789 20.9753C12.269 20.9498 12.3524 20.9054 12.4235 20.8451C12.4947 20.7848 12.5518 20.71 12.5909 20.6258C12.6301 20.5416 12.6504 20.4501 12.6504 20.3574V11.9994H19.3743L18.0781 13.123C17.9561 13.2372 17.8836 13.3937 17.8757 13.5597C17.8678 13.7256 17.9252 13.8881 18.0358 14.0132C18.1464 14.1382 18.3017 14.216 18.4691 14.2303C18.6364 14.2446 18.8029 14.1943 18.9335 14.0898L21.5284 11.8399C21.598 11.7796 21.6538 11.7053 21.692 11.6219C21.7302 11.5385 21.75 11.4481 21.75 11.3565C21.75 11.265 21.7302 11.1745 21.692 11.0912C21.6538 11.0078 21.598 10.9335 21.5284 10.8731L18.9335 8.62322C18.8039 8.51104 18.6345 8.45438 18.4626 8.46571C18.2907 8.47705 18.1304 8.55544 18.017 8.68365C17.9036 8.81185 17.8463 8.97937 17.8577 9.14936C17.8692 9.31934 17.9485 9.47785 18.0781 9.59004L19.3743 10.7137H12.6504V3.64258ZM11.3504 4.39084V19.6104L3.55005 18.4276V5.56978L11.3504 4.39084Z" fill="#A8BBDE"/>
<path d="M14.25 19.1992H13.65V13.1992H14.85V18.5992C14.85 18.7583 14.7867 18.911 14.6742 19.0235C14.5617 19.136 14.4091 19.1992 14.25 19.1992Z" fill="#A8BBDE"/>
<path d="M13.65 9.60078V4.80078H14.25C14.4091 4.80078 14.5617 4.864 14.6742 4.97652C14.7867 5.08904 14.85 5.24165 14.85 5.40078V9.60078H13.65Z" fill="#A8BBDE"/>
</svg>
