<svg width="24" height="24" viewBox="0 0 24 24" fill="none" xmlns="http://www.w3.org/2000/svg">
<path d="M8.62801 19.1655C8.62801 19.3276 8.58397 19.4006 8.43645 19.46C7.30407 19.9178 6.17345 20.3802 5.04288 20.8426C4.67328 20.9938 4.30369 21.1449 3.93404 21.2959C3.45491 21.4918 3.25057 21.4211 3 20.9731M8.62801 19.1655C8.62516 15.4904 8.62369 11.8165 8.62361 8.14366C8.45696 8.21201 8.29029 8.28034 8.12362 8.34863M8.62801 19.1655H8.31778H8.31738H8.13022M8.62801 19.1655L8.31788 19.1657L8.31748 19.1657L8.13013 19.1659C8.12876 19.1719 8.12802 19.1765 8.12766 19.1793C8.12783 19.1766 8.12801 19.1721 8.12801 19.1655H8.13022M8.12362 8.34863C8.12361 8.17041 8.12361 7.99218 8.12361 7.81396V7.80828C6.58055 8.44078 5.03635 9.07056 3.49102 9.69763M8.12362 8.34863C6.64313 8.95523 5.1616 9.55934 3.67902 10.1609M8.12362 8.34863C8.12375 11.9132 8.12518 15.4788 8.12791 19.0454M3.49102 9.69763C3.25498 9.79355 3.07222 9.92999 3 10.1898M3.49102 9.69763L3.67925 10.1608C3.67917 10.1609 3.6791 10.1609 3.67902 10.1609M3.49102 9.69763L3.67902 10.1609M3 10.1898V20.9731M3 10.1898L3.48174 10.3237C3.48706 10.3046 3.49315 10.2902 3.5 10.2786M3 10.1898H3.5V10.2786M3 20.9731H3.5V20.8338M3 20.9731L3.43639 20.729C3.46092 20.7729 3.48204 20.8071 3.5 20.8338M3.5 20.8338C3.51954 20.8628 3.53533 20.8829 3.54765 20.8966M3.5 20.8338V10.2786M3.54765 20.8966C3.58356 20.8907 3.64475 20.874 3.74482 20.8331L3.74496 20.8331C4.1141 20.6823 4.48335 20.5313 4.85272 20.3802C5.94329 19.9342 7.03493 19.4877 8.12791 19.0454M3.54765 20.8966C3.54863 20.8976 3.54958 20.8987 3.55051 20.8997C3.55951 20.9094 3.56396 20.9127 3.56396 20.9127C3.56396 20.9127 3.55747 20.9078 3.54469 20.9034C3.53244 20.8992 3.52474 20.8989 3.52473 20.8989C3.52473 20.899 3.5308 20.8992 3.54516 20.897C3.54597 20.8968 3.5468 20.8967 3.54765 20.8966ZM3.5 10.2786C3.50749 10.2659 3.51588 10.2565 3.52517 10.2478C3.54886 10.2257 3.59312 10.1959 3.67902 10.1609M8.12791 19.0454C8.16829 19.0291 8.20866 19.0128 8.24904 18.9965L8.24958 18.9962C8.25503 18.994 8.25743 18.9928 8.2574 18.9928C8.25737 18.9928 8.25462 18.9941 8.24988 18.997C8.24971 18.9971 8.24955 18.9972 8.24937 18.9973C8.23375 19.0068 8.19805 19.0324 8.16664 19.0814C8.14425 19.1163 8.13439 19.1473 8.13022 19.1655M8.12791 19.0454L8.13022 19.1655" fill="#A8BBDE" stroke="#A8BBDE"/>
<path d="M14.2472 21.2146L12.6029 20.5391C11.6984 20.1685 10.7943 19.7965 9.88753 19.4313C9.78712 19.3908 9.74573 19.3485 9.74573 19.2314C9.74896 15.3866 9.74983 11.5418 9.74837 7.69704V7.61328C9.86991 7.62904 9.96855 7.68938 10.0729 7.73171C10.789 8.02232 11.5046 8.31382 12.2198 8.60623C12.2889 8.6346 12.3545 8.65756 12.3884 8.74447C12.8288 9.87026 13.47 10.8727 14.1596 11.8476C14.2189 11.9277 14.2499 12.0259 14.2477 12.1263C14.245 15.1029 14.245 18.0793 14.2477 21.0556L14.2472 21.2146Z" fill="#A8BBDE"/>
<path d="M15.3807 13.4366C15.5097 13.5866 15.6194 13.7149 15.7304 13.8419C16.5046 14.7304 17.6302 14.7254 18.3991 13.827C19.3445 12.7224 20.2253 11.5687 20.9656 10.3047C21.0197 10.343 20.9937 10.3948 20.9937 10.4371C20.9955 13.1624 20.9955 15.8877 20.9937 18.613C20.9937 18.9701 20.8815 19.1471 20.5653 19.2763C18.8704 19.9716 17.1747 20.6657 15.478 21.3586C15.4468 21.3712 15.4133 21.3793 15.3794 21.3901L15.3807 13.4366Z" fill="#A8BBDE"/>
<path d="M20.9097 6.19994C20.516 4.5698 19.5243 3.53182 17.9305 3.10177C17.7698 3.05674 17.5981 3.077 17.4461 3H16.6376C16.5147 3.07565 16.3734 3.05539 16.2413 3.08781C14.9518 3.40303 14.0152 4.16857 13.4669 5.40243C13.141 6.13734 13.023 6.90873 13.2256 7.70984C13.3744 8.2993 13.6276 8.84238 13.9187 9.3679C14.6726 10.7274 15.6133 11.9478 16.6129 13.1231C16.8855 13.4437 17.2493 13.4279 17.5333 13.097C18.1832 12.3423 18.7928 11.5523 19.3596 10.7306C19.8638 9.99609 20.3222 9.23371 20.6701 8.40558C20.9669 7.69408 21.0946 6.96007 20.9097 6.19994ZM17.0546 8.74962C16.1298 8.74511 15.3636 7.95436 15.3728 7.01636C15.3821 6.0707 16.1576 5.28715 17.0718 5.30111C17.994 5.31552 18.7452 6.08961 18.7452 7.02536C18.7452 7.96112 17.9741 8.75457 17.0546 8.74962Z" fill="#A8BBDE"/>
</svg>
