<svg width="24" height="24" viewBox="0 0 24 24" fill="none" xmlns="http://www.w3.org/2000/svg">
<path d="M4.635 8.99828H8.25C8.44891 8.99828 8.63968 8.91926 8.78033 8.77861C8.92098 8.63796 9 8.44719 9 8.24828C9 8.04937 8.92098 7.8586 8.78033 7.71795C8.63968 7.5773 8.44891 7.49828 8.25 7.49828H6C7.05121 6.09731 8.55959 5.10844 10.2636 4.70316C11.9675 4.29787 13.7596 4.50174 15.329 5.2794C16.8984 6.05706 18.1461 7.35947 18.8558 8.96075C19.5654 10.562 19.6923 12.3612 19.2144 14.0462C18.7364 15.7312 17.6838 17.1959 16.239 18.186C14.7943 19.1762 13.0486 19.6296 11.3046 19.4674C9.56062 19.3052 7.9284 18.5378 6.69101 17.2982C5.45361 16.0586 4.68907 14.425 4.53 12.6808C4.52525 12.5797 4.50009 12.4806 4.45602 12.3894C4.41195 12.2983 4.34989 12.217 4.27358 12.1505C4.19727 12.084 4.10828 12.0337 4.01199 12.0024C3.91569 11.9713 3.81407 11.9599 3.71326 11.969C3.61245 11.9781 3.51452 12.0075 3.42538 12.0555C3.33625 12.1035 3.25775 12.169 3.19461 12.2481C3.13147 12.3272 3.085 12.4183 3.058 12.5159C3.031 12.6134 3.02402 12.7155 3.0375 12.8158C3.22613 14.8784 4.12039 16.8127 5.56942 18.2927C7.01845 19.7726 8.93357 20.7074 10.9917 20.9394C13.0498 21.1715 15.125 20.6866 16.8672 19.5665C18.6094 18.4464 19.912 16.7597 20.5551 14.791C21.1983 12.8222 21.1428 10.6918 20.3979 8.7592C19.6529 6.82661 18.2643 5.21009 16.4661 4.18233C14.6679 3.15457 12.5702 2.77848 10.527 3.11749C8.48372 3.4565 6.61993 4.48987 5.25 6.04328V4.49828C5.25 4.29937 5.17098 4.1086 5.03033 3.96795C4.88968 3.8273 4.69891 3.74828 4.5 3.74828C4.30109 3.74828 4.11032 3.8273 3.96967 3.96795C3.82902 4.1086 3.75 4.29937 3.75 4.49828V8.24828C3.75 8.44719 3.82902 8.63796 3.96967 8.77861C4.11032 8.91926 4.30109 8.99828 4.5 8.99828H4.635ZM11.25 7.49828C11.4489 7.49828 11.6397 7.5773 11.7803 7.71795C11.921 7.8586 12 8.04937 12 8.24828V11.9983H14.25C14.4489 11.9983 14.6397 12.0773 14.7803 12.2179C14.921 12.3586 15 12.5494 15 12.7483C15 12.9472 14.921 13.138 14.7803 13.2786C14.6397 13.4193 14.4489 13.4983 14.25 13.4983H11.25C11.0511 13.4983 10.8603 13.4193 10.7197 13.2786C10.579 13.138 10.5 12.9472 10.5 12.7483V8.24828C10.5 8.04937 10.579 7.8586 10.7197 7.71795C10.8603 7.5773 11.0511 7.49828 11.25 7.49828Z" fill="#A8BBDE"/>
</svg>
