<svg width="24" height="24" viewBox="0 0 24 24" fill="none" xmlns="http://www.w3.org/2000/svg">
<path d="M12 12C14.4853 12 16.5 9.98528 16.5 7.5C16.5 5.01472 14.4853 3 12 3C9.51472 3 7.5 5.01472 7.5 7.5C7.5 9.98528 9.51472 12 12 12Z" stroke="#A8BBDE" stroke-width="2" stroke-miterlimit="10"/>
<path d="M3.59732 17.2079L3.59739 17.2071C3.67323 16.3218 4.089 15.5029 4.753 14.911C5.41577 14.3201 6.27785 13.9975 7.16691 14M3.59732 17.2079L7.16536 15M3.59732 17.2079L3.51253 18.2071C3.51251 18.2073 3.5125 18.2074 3.51249 18.2076C3.51248 18.2077 3.51247 18.2078 3.51246 18.2079C3.47082 18.6953 3.53387 19.1853 3.69704 19.6465C3.86028 20.108 4.1197 20.5294 4.45719 20.8847C4.7946 21.2399 5.20262 21.5214 5.65445 21.7127C6.10565 21.9038 6.59167 22.0014 7.082 22M3.59732 17.2079L7.08049 21M7.16691 14C7.16751 14 7.16811 14 7.16871 14L7.16536 15M7.16691 14H7.16536V15M7.16691 14H16.8331M7.16536 15H16.8346M16.8331 14C16.8325 14 16.8319 14 16.8313 14L16.8346 15M16.8331 14H16.8346V15M16.8331 14C17.7221 13.9975 18.5842 14.3201 19.247 14.911C19.911 15.5029 20.3268 16.3218 20.4026 17.2071L20.4027 17.2079L20.4875 18.2071C20.5292 18.6944 20.4663 19.1844 20.3033 19.6457L19.3604 19.3124L20.3033 19.6457C20.1402 20.1069 19.8811 20.5281 19.544 20.8834C19.207 21.2386 18.7994 21.5201 18.348 21.7117L17.9573 20.7912L18.348 21.7117C17.897 21.9031 17.4112 22.001 16.921 22M16.8346 15L7.08049 21M16.921 22C16.9206 22 16.9201 22 16.9197 22L16.9221 21V22H16.921ZM16.921 22H7.082M7.082 22C7.08262 22 7.08323 22 7.08385 22L7.08049 21M7.082 22H7.08049V21" stroke="#A8BBDE" stroke-width="2" stroke-miterlimit="10"/>
</svg>
