<svg width="675" height="466" viewBox="0 0 675 466" fill="none" xmlns="http://www.w3.org/2000/svg">
<path opacity="0.1" d="M210.889 131.386C234.063 122.272 270.44 120.413 303.552 121.143C407.56 123.42 501.445 145.572 582.651 170.632C612.052 179.706 640.995 189.484 660.08 201.977C698.927 227.409 687.403 262.638 633.387 283.588C615.006 290.718 592.728 296.201 569.852 301.02C529.173 309.637 485.308 316.547 439.145 318.539C406.233 319.939 372.909 318.798 340.189 316.839C248.76 311.349 159.024 299.288 83.8058 278.556C50.8137 269.482 19.7201 258.197 6.13821 243.506C-7.44367 228.816 1.23918 210.216 34.9283 201.519C48.8687 197.928 65.5174 196.302 81.8276 194.782C105.832 192.538 130.221 190.321 151.881 185.76C174.259 181.047 200.752 171.933 196.324 161.504C191.551 150.312 187.741 140.487 210.889 131.386Z" fill="#0064AB"/>
<path fill-rule="evenodd" clip-rule="evenodd" d="M387.623 56.8667L373.523 42.7726C372.642 41.8917 371.446 41.3961 370.2 41.3961V32H360.8V41.3961C359.873 41.3984 358.964 41.6715 358.191 42.1854L344.091 51.5814C342.785 52.4529 342 53.9211 342 55.4902V74.2824C342 75.528 342.496 76.723 343.377 77.6039L352.777 87L359.423 80.357L351.4 72.3374V58.0043L362.209 50.7922H368.24L379.6 62.1333V72.3374L371.577 80.357L378.223 87L387.623 77.6039C388.504 76.723 389 75.528 389 74.2824V60.1883C389 58.9427 388.504 57.7476 387.623 56.8667Z" fill="#787680"/>
<path fill-rule="evenodd" clip-rule="evenodd" d="M222 148.827C222 76.1481 256.88 45 305.461 45C354.042 45 391 62.9967 391 148.827C391 229.12 354.042 253 305.461 253C256.88 253 222 231.196 222 148.827ZM255 149.053C255 206.229 272.597 226 306.28 226C339.962 226 359 204.788 359 149.053C359 89.4753 340.683 72 307 72C273.317 72 255 98.6042 255 149.053Z" fill="#2F2E41"/>
<path d="M190.936 195.51H170.945V136.16C170.945 129.596 165.666 124.274 159.155 124.274H154.471C151.344 124.274 148.345 125.526 146.134 127.755C143.923 129.984 142.681 133.008 142.681 136.16V195.51H86.2917C83.9321 195.51 81.7449 194.264 80.527 192.227C79.3091 190.19 79.2384 187.658 80.3407 185.555L140.022 71.6748C141.526 68.8057 141.801 65.4417 140.783 62.3633C139.765 59.285 137.543 56.76 134.633 55.3745L131.109 53.6972C125.428 50.9922 118.64 53.255 115.678 58.8416L42.888 196.119C41.6485 198.457 41 201.067 41 203.717C41 207.992 42.6843 212.091 45.6824 215.114C48.6805 218.136 52.7468 219.834 56.9867 219.834H142.681V257.364C142.681 261.142 144.17 264.766 146.82 267.438C149.47 270.11 153.065 271.611 156.813 271.611H156.813C160.561 271.611 164.155 270.11 166.806 267.438C169.456 264.766 170.945 261.142 170.945 257.364V219.834H190.936C197.599 219.834 203 214.389 203 207.672C203 200.955 197.599 195.51 190.936 195.51Z" fill="#F9CB5F"/>
<path d="M563.936 195.51H543.945V136.16C543.945 129.596 538.666 124.274 532.155 124.274H527.471C524.344 124.274 521.345 125.526 519.134 127.755C516.923 129.984 515.681 133.008 515.681 136.16V195.51H459.292C456.932 195.51 454.745 194.264 453.527 192.227C452.309 190.19 452.238 187.658 453.341 185.555L513.022 71.6748C514.526 68.8057 514.801 65.4417 513.783 62.3633C512.765 59.285 510.543 56.76 507.633 55.3745L504.109 53.6972C498.428 50.9922 491.64 53.255 488.678 58.8416L415.888 196.119C414.648 198.457 414 201.067 414 203.717C414 212.619 421.157 219.834 429.987 219.834H515.681V257.364C515.681 265.232 522.008 271.611 529.813 271.611C537.618 271.611 543.945 265.232 543.945 257.364V219.834H563.936C570.599 219.834 576 214.389 576 207.672C576 200.955 570.599 195.51 563.936 195.51Z" fill="#F9CB5F"/>
<path fill-rule="evenodd" clip-rule="evenodd" d="M196.862 188.971H176.747V129.621C176.747 126.469 175.497 123.445 173.272 121.216C171.048 118.987 168.03 117.735 164.884 117.735H160.171C153.62 117.735 148.309 123.057 148.309 129.621V188.971H91.5712C89.1972 188.971 86.9964 187.725 85.771 185.688C84.5456 183.651 84.4745 181.119 85.5836 179.016L145.634 65.1359C147.147 62.2668 147.423 58.9028 146.399 55.8244C145.375 52.7461 143.139 50.2211 140.21 48.8355L136.666 47.1583C130.949 44.4533 124.119 46.7161 121.139 52.3026L47.8996 189.58C46.6525 191.918 46 194.528 46 197.178V197.178C46 206.08 53.2017 213.296 62.0854 213.296H148.309V250.825C148.309 254.603 149.807 258.227 152.473 260.899C155.14 263.571 158.757 265.072 162.528 265.072H162.528C170.381 265.072 176.747 258.693 176.747 250.825V213.296H196.862C200.081 213.296 203.168 212.014 205.445 209.733C207.721 207.452 209 204.359 209 201.133V201.133C209 197.908 207.721 194.814 205.445 192.533C203.168 190.252 200.081 188.971 196.862 188.971V188.971Z" stroke="#F9CB5F"/>
<path fill-rule="evenodd" clip-rule="evenodd" d="M131.514 225.018L113 221.544L125.915 152.627C127.188 145.831 131.383 139.938 137.384 136.51L212.005 93.897C214.621 92.4031 217.912 92.845 220.042 94.9761C223.04 97.9749 222.525 102.971 218.98 105.295L148.201 151.69C146.056 153.095 144.578 155.314 144.106 157.836L131.514 225.018Z" fill="#0064AB"/>
<path fill-rule="evenodd" clip-rule="evenodd" d="M574.936 188.971H554.945V129.621C554.945 123.057 549.666 117.735 543.155 117.735H538.471C535.344 117.735 532.345 118.987 530.134 121.216C527.923 123.445 526.681 126.469 526.681 129.621V188.971H470.292C467.932 188.971 465.745 187.725 464.527 185.688C463.309 183.651 463.238 181.119 464.341 179.016L524.022 65.1359C525.526 62.2668 525.801 58.9028 524.783 55.8244C523.765 52.7461 521.543 50.2211 518.633 48.8355L515.109 47.1583C509.428 44.4533 502.64 46.7161 499.678 52.3026L426.888 189.58C425.648 191.918 425 194.528 425 197.178V197.178C425 206.08 432.157 213.296 440.987 213.296H526.681V250.825C526.681 258.693 533.008 265.072 540.813 265.072V265.072C548.618 265.072 554.945 258.693 554.945 250.825V213.296H574.936C578.136 213.296 581.204 212.014 583.467 209.733C585.729 207.452 587 204.359 587 201.133V201.133C587 194.416 581.599 188.971 574.936 188.971Z" stroke="#F9CB5F"/>
<path d="M401 141.827H401.5H401ZM369 142.053H369.5H369ZM315.461 37.5C291.06 37.5 270.044 45.3262 255.137 62.3293C240.237 79.323 231.5 105.414 231.5 141.827H232.5C232.5 105.561 241.203 79.7386 255.889 62.9885C270.566 46.2478 291.281 38.5 315.461 38.5V37.5ZM231.5 141.827C231.5 183.067 240.23 209.263 255.148 225.144C270.076 241.035 291.105 246.5 315.461 246.5V245.5C291.237 245.5 270.535 240.064 255.877 224.46C241.211 208.847 232.5 182.956 232.5 141.827H231.5ZM315.461 246.5C339.827 246.5 361.368 240.511 376.81 224.369C392.246 208.232 401.5 182.04 401.5 141.827H400.5C400.5 181.907 391.275 207.801 376.087 223.678C360.904 239.549 339.675 245.5 315.461 245.5V246.5ZM401.5 141.827C401.5 98.8561 392.251 72.7376 376.801 57.3726C361.348 42.0049 339.798 37.5 315.461 37.5V38.5C339.705 38.5 360.924 42.9935 376.096 58.0816C391.27 73.1725 400.5 98.9675 400.5 141.827H401.5ZM316.28 218.5C299.544 218.5 286.904 213.596 278.416 201.678C269.899 189.718 265.5 170.612 265.5 142.053H264.5C264.5 170.671 268.899 190.038 277.602 202.258C286.333 214.519 299.332 219.5 316.28 219.5V218.5ZM265.5 142.053C265.5 116.876 270.073 97.7283 278.783 84.8889C287.472 72.0793 300.312 65.5 317 65.5V64.5C300.006 64.5 286.845 71.2228 277.955 84.3275C269.086 97.4025 264.5 116.781 264.5 142.053H265.5ZM317 65.5C333.753 65.5 346.57 69.8415 355.23 81.4833C363.92 93.1656 368.5 112.292 368.5 142.053H369.5C369.5 112.237 364.921 92.8363 356.032 80.8865C347.113 68.8962 333.929 64.5 317 64.5V65.5ZM368.5 142.053C368.5 169.881 363.744 188.989 354.867 201.132C346.015 213.241 333.006 218.5 316.28 218.5V219.5C333.236 219.5 346.587 214.153 355.674 201.722C364.737 189.325 369.5 169.96 369.5 142.053H368.5ZM316.28 219.5H316.28V218.5H316.28V219.5Z" fill="#3F3D56"/>
<path fill-rule="evenodd" clip-rule="evenodd" d="M238.777 232.018C237.555 232.018 236.333 231.559 235.4 230.643C233.533 228.81 233.533 225.84 235.4 224.007L238.777 220.69V180.402C238.777 175.227 243.066 171.018 248.333 171.018L258.715 171.02C268.798 171.023 277 179.081 277 188.983C277 193.781 275.096 198.292 271.643 201.683L242.155 230.643C241.223 231.559 240 232.018 238.777 232.018Z" fill="#0064AB"/>
<path fill-rule="evenodd" clip-rule="evenodd" d="M102 285.018H140V266.018H102V285.018Z" fill="#5C575F"/>
<path fill-rule="evenodd" clip-rule="evenodd" d="M79 233.018H13V228.017C13 225.256 15.1111 223.018 17.7145 223.018H74.286C76.8895 223.018 79 225.256 79 228.017V233.018Z" fill="#6D6970"/>
<path fill-rule="evenodd" clip-rule="evenodd" d="M192.143 318.018H31.8569C21.4426 318.018 13 309.511 13 299.018C13 288.524 21.4426 280.018 31.8569 280.018H192.143C202.557 280.018 211 288.524 211 299.018C211 309.511 202.557 318.018 192.143 318.018Z" fill="#48454D"/>
<path fill-rule="evenodd" clip-rule="evenodd" d="M31 308.018H191V289.018H31V308.018Z" fill="#5C575F"/>
<path fill-rule="evenodd" clip-rule="evenodd" d="M31.4997 289.018C36.7465 289.018 41 293.271 41 298.518C41 303.765 36.7465 308.018 31.4997 308.018C26.2535 308.018 22 303.765 22 298.518C22 293.271 26.2535 289.018 31.4997 289.018Z" fill="#6D6970"/>
<mask id="mask0" mask-type="alpha" maskUnits="userSpaceOnUse" x="3" y="190" width="198" height="118">
<path fill-rule="evenodd" clip-rule="evenodd" d="M3.03201 190.366H200.871V307.669H3.03201V190.366Z" fill="white"/>
</mask>
<g mask="url(#mask0)">
<path fill-rule="evenodd" clip-rule="evenodd" d="M191.448 288.901C196.653 288.901 200.871 293.102 200.871 298.285C200.871 303.468 196.653 307.669 191.448 307.669C186.245 307.669 182.026 303.468 182.026 298.285C182.026 293.102 186.245 288.901 191.448 288.901Z" fill="#6D6970"/>
<path fill-rule="evenodd" clip-rule="evenodd" d="M145.895 190.366H92.5131C89.9113 190.366 87.8022 192.467 87.8022 195.058V232.595H7.71144C5.10969 232.595 3 234.696 3 237.288V265.44C3 268.032 5.10969 270.133 7.71144 270.133H158.47C161.072 270.133 163.181 268.032 163.181 265.44V252.559C163.181 245.522 162.545 238.499 161.282 231.575L155.165 198.072C154.351 193.61 150.449 190.366 145.895 190.366Z" fill="#0064AB"/>
<path fill-rule="evenodd" clip-rule="evenodd" d="M158.47 270.133H7.71144C5.10969 270.133 3 268.032 3 265.44V256.056H163.181V265.44C163.181 268.032 161.072 270.133 158.47 270.133Z" fill="#0881D8"/>
</g>
<path fill-rule="evenodd" clip-rule="evenodd" d="M161.365 232.003L155.247 198.681C154.433 194.243 150.529 191.018 145.973 191.018H102V220.619C102 225.569 103.986 230.317 107.522 233.818L115.33 241.55C118.865 245.051 123.661 247.018 128.66 247.018H163C162.744 241.984 162.277 236.965 161.365 232.003Z" fill="#6D6970"/>
<path fill-rule="evenodd" clip-rule="evenodd" d="M114.5 195.018H109.5C108.119 195.018 107 196.061 107 197.347V219.905C107 223.611 108.581 227.165 111.394 229.786L113.12 231.393C114.552 232.727 117 231.783 117 229.896V197.347C117 196.061 115.881 195.018 114.5 195.018Z" fill="#5C575F"/>
<path fill-rule="evenodd" clip-rule="evenodd" d="M156.52 232.304L150.387 198.733C149.978 196.497 148.022 194.872 145.738 194.872H127.639C126.335 194.872 125.277 195.925 125.277 197.223V239.538C125.277 240.836 126.335 241.889 127.639 241.889H155.158C156.553 241.889 157.662 240.671 157.516 239.29C157.253 236.819 156.925 234.521 156.52 232.304Z" fill="#5C575F"/>
<path fill-rule="evenodd" clip-rule="evenodd" d="M264.487 195.442L248.117 211.732V180.767L258.383 180.77C263.145 180.772 267.016 184.627 267.016 189.365C267.016 191.661 266.116 193.819 264.487 195.442ZM258.383 171.367L255.464 171.367C255.457 171.35 255.452 171.333 255.445 171.317L223.696 100.229C221.644 95.6339 215.929 93.9844 211.725 96.7737C208.244 99.0825 207.085 103.64 209.043 107.319L243.699 172.462C240.711 174.043 238.668 177.17 238.668 180.768V221.136L235.328 224.46C233.483 226.297 233.483 229.272 235.328 231.109C236.251 232.028 237.46 232.487 238.668 232.487C239.877 232.487 241.086 232.028 242.009 231.109L271.168 202.091C274.582 198.694 276.465 194.173 276.465 189.366C276.465 179.443 268.354 171.369 258.383 171.367Z" fill="#0881D8"/>
<path opacity="0.1" d="M113.5 333.176C168.452 333.176 213 328.211 213 322.088C213 315.964 168.452 311 113.5 311C58.5477 311 14 315.964 14 322.088C14 328.211 58.5477 333.176 113.5 333.176Z" fill="#0064AB"/>
<mask id="mask1" mask-type="alpha" maskUnits="userSpaceOnUse" x="373" y="207" width="274" height="48">
<path fill-rule="evenodd" clip-rule="evenodd" d="M646.965 207.552H373V254.516H646.965V207.552Z" fill="white"/>
</mask>
<g mask="url(#mask1)">
<path fill-rule="evenodd" clip-rule="evenodd" d="M599.759 207.552H647V254.552H590.31V207.552H599.759Z" fill="#302D43"/>
</g>
<mask id="mask2" mask-type="alpha" maskUnits="userSpaceOnUse" x="430" y="0" width="203" height="81">
<path fill-rule="evenodd" clip-rule="evenodd" d="M633 0.551727H430V80.5517H633V0.551727Z" fill="white"/>
</mask>
<g mask="url(#mask2)">
<path fill-rule="evenodd" clip-rule="evenodd" d="M618.837 80.5517C611.016 80.5517 604.674 74.2306 604.674 66.4341C604.667 66.1676 604.681 65.8988 604.72 65.6347C605.11 58.4723 610.848 52.7506 618.035 52.3647C618.3 52.3259 618.57 52.3094 618.837 52.3164C626.659 52.3164 633 58.6376 633 66.4341C633 74.2306 626.659 80.5517 618.837 80.5517Z" fill="#0881D8"/>
<path fill-rule="evenodd" clip-rule="evenodd" d="M567.663 28.7411C567.412 28.78 567.161 28.7964 566.907 28.787C561.326 28.7752 556.273 25.5011 554.001 20.4205C551.727 15.3405 552.659 9.4029 556.379 5.2576C559.037 2.24054 562.88 0.524073 566.907 0.551721C574.728 0.551721 581.07 6.8729 581.07 14.6694C581.077 14.9223 581.063 15.1723 581.024 15.4229C580.683 22.6335 574.894 28.4011 567.663 28.7411Z" fill="#0881D8"/>
<path fill-rule="evenodd" clip-rule="evenodd" d="M454.739 24.0811C454.361 24.4582 453.983 24.8347 453.605 25.1635C449.446 28.8723 443.489 29.8006 438.393 27.5347C433.299 25.2694 430.012 20.2323 430 14.6694C430 6.8729 436.341 0.551727 444.163 0.551727C451.972 0.581727 458.298 6.88467 458.326 14.6694C458.351 18.1435 457.069 21.5005 454.739 24.0811Z" fill="#0881D8"/>
</g>
<path fill-rule="evenodd" clip-rule="evenodd" d="M435.723 28.2194L369.149 49.8506L363.277 31.7806L429.851 10.1494C426.89 16.784 429.427 24.5926 435.723 28.2194Z" fill="#0064AB"/>
<path fill-rule="evenodd" clip-rule="evenodd" d="M604.784 65.5517L568 28.8138C575.178 28.4752 580.924 22.7319 581.262 15.5517L618 52.3377C610.866 52.7219 605.17 58.4196 604.784 65.5517Z" fill="#0064AB"/>
<path fill-rule="evenodd" clip-rule="evenodd" d="M600 207.552H638L637.668 198.085L633.25 65.5517C633.25 73.3937 626.87 79.7517 619 79.7517C611.13 79.7517 604.75 73.3937 604.75 65.5517L600.332 198.085L600 207.552Z" fill="#0064AB"/>
<path fill-rule="evenodd" clip-rule="evenodd" d="M556 23.5517H454.049C458.858 18.1314 458.837 9.94892 454 4.55173H556C551.137 9.94654 551.137 18.1569 556 23.5517Z" fill="#0064AB"/>
<path fill-rule="evenodd" clip-rule="evenodd" d="M600 207.552H638L637.668 198.552H600.332L600 207.552Z" fill="#4EB4FD"/>
<path fill-rule="evenodd" clip-rule="evenodd" d="M338.537 55.8667L354.273 41.7726C355.257 40.8917 356.591 40.3961 357.982 40.3961V31H369.473V40.3961C370.507 40.3984 371.522 40.6715 372.385 41.1854L378.946 48.0933L369.985 51.2749L366.9 49.7922H360.169L347.491 61.1333V71.3374L356.445 79.357L349.028 86L338.537 76.6039C337.553 75.723 337 74.528 337 73.2824V59.1883C337 57.9427 337.553 56.7476 338.537 55.8667Z" fill="#787680"/>
<path fill-rule="evenodd" clip-rule="evenodd" d="M439 14.0517C439 16.5369 441.015 18.5517 443.5 18.5517C445.985 18.5517 448 16.5369 448 14.0517C448 11.5666 445.985 9.55173 443.5 9.55173C441.015 9.55173 439 11.5666 439 14.0517Z" fill="#4EB4FD"/>
<path fill-rule="evenodd" clip-rule="evenodd" d="M562 14.0517C562 16.5369 564.015 18.5517 566.5 18.5517C568.985 18.5517 571 16.5369 571 14.0517C571 11.5666 568.985 9.55173 566.5 9.55173C564.015 9.55173 562 11.5666 562 14.0517Z" fill="#4EB4FD"/>
<path fill-rule="evenodd" clip-rule="evenodd" d="M614 66.0517C614 68.5369 616.015 70.5517 618.5 70.5517C620.985 70.5517 623 68.5369 623 66.0517C623 63.5666 620.985 61.5517 618.5 61.5517C616.015 61.5517 614 63.5666 614 66.0517Z" fill="#4EB4FD"/>
<path d="M453.524 257.831C453.524 257.831 431.261 256.487 433.887 272.086C433.887 272.086 433.369 274.842 435.866 276.093C435.866 276.093 435.903 274.94 438.147 275.329C438.945 275.465 439.757 275.504 440.564 275.446C441.659 275.368 442.698 274.935 443.524 274.213C443.524 274.213 449.782 271.629 452.211 261.401C452.211 261.401 454.011 259.175 453.943 258.602L450.182 260.205C450.182 260.205 451.471 262.912 450.46 265.168C450.46 265.168 450.336 260.304 449.615 260.415C449.467 260.415 447.661 261.358 447.661 261.358C447.661 261.358 449.874 266.074 448.203 269.508C448.203 269.508 448.82 263.688 446.97 261.697L444.325 263.238C444.325 263.238 446.89 268.14 445.164 272.104C445.164 272.104 445.608 266.007 443.776 263.627L441.378 265.476C441.378 265.476 443.801 270.279 442.328 273.578C442.328 273.578 442.13 266.475 440.86 265.939C440.86 265.939 438.764 267.788 438.443 268.547C438.443 268.547 440.102 272.036 439.06 273.874C439.06 273.874 438.443 269.145 437.913 269.12C437.913 269.12 435.823 272.258 435.607 274.404C435.708 272.416 436.329 270.49 437.408 268.818C436.202 269.046 435.089 269.622 434.208 270.476C434.208 270.476 434.535 268.257 437.907 268.066C437.907 268.066 439.633 265.686 440.096 265.544C440.096 265.544 436.723 265.261 434.683 266.161C434.683 266.161 436.483 264.071 440.712 265.02L443.08 263.09C443.08 263.09 438.641 262.474 436.76 263.152C436.76 263.152 438.924 261.302 443.715 262.653L446.292 261.111C446.292 261.111 442.513 260.297 440.256 260.587C440.256 260.587 442.636 259.305 447.038 260.698L448.888 259.872C448.888 259.872 446.119 259.323 445.305 259.256C444.492 259.188 444.448 258.941 444.448 258.941C446.205 258.648 448.009 258.849 449.658 259.521C449.658 259.521 453.586 258.078 453.524 257.831Z" fill="#0064AB"/>
<path opacity="0.1" d="M438.191 280.113C446.891 280.113 453.943 278.92 453.943 277.449C453.943 275.978 446.891 274.786 438.191 274.786C429.491 274.786 422.438 275.978 422.438 277.449C422.438 278.92 429.491 280.113 438.191 280.113Z" fill="#0064AB"/>
<path d="M414.522 258.664C414.522 258.664 401.975 257.905 403.455 266.679C403.298 267.595 403.748 268.509 404.571 268.941C404.571 268.941 404.571 268.288 405.86 268.51C406.31 268.586 406.767 268.608 407.222 268.578C407.837 268.535 408.422 268.292 408.887 267.887C408.887 267.887 412.413 266.432 413.788 260.667C413.788 260.667 414.799 259.434 414.762 259.083L412.642 259.989C413.05 260.868 413.105 261.87 412.796 262.788C412.796 262.788 412.728 260.045 412.321 260.112C412.241 260.112 411.223 260.637 411.223 260.637C411.223 260.637 412.457 263.3 411.526 265.236C411.526 265.236 411.883 261.956 410.835 260.834L409.343 261.703C409.343 261.703 410.798 264.453 409.812 266.691C409.812 266.691 410.064 263.251 409.029 261.913L407.678 262.967C407.678 262.967 409.047 265.674 408.215 267.536C408.215 267.536 408.104 263.534 407.389 263.22C406.875 263.653 406.418 264.148 406.026 264.693C406.026 264.693 406.957 266.66 406.378 267.696C406.378 267.696 406.026 265.026 405.761 265.02C405.761 265.02 404.583 266.783 404.46 267.998C404.52 266.877 404.871 265.792 405.477 264.847C404.798 264.977 404.171 265.3 403.671 265.778C403.671 265.778 403.856 264.545 405.767 264.422C406.124 263.903 406.537 263.425 407 262.998C405.97 262.913 404.933 263.032 403.948 263.349C403.948 263.349 404.96 262.172 407.352 262.733L408.683 261.648C408.683 261.648 406.18 261.302 405.12 261.648C405.12 261.648 406.353 260.606 409.041 261.364L410.496 260.501C409.379 260.254 408.235 260.155 407.093 260.205C407.093 260.205 408.431 259.484 410.921 260.267L411.957 259.798C411.957 259.798 410.397 259.49 409.935 259.447C409.473 259.403 409.454 259.268 409.454 259.268C410.444 259.105 411.459 259.218 412.389 259.595C412.389 259.595 414.565 258.799 414.522 258.664Z" fill="#0064AB"/>
<path opacity="0.1" d="M405.884 271.229C410.791 271.229 414.769 270.555 414.769 269.724C414.769 268.893 410.791 268.22 405.884 268.22C400.978 268.22 397 268.893 397 269.724C397 270.555 400.978 271.229 405.884 271.229Z" fill="#0064AB"/>
<path d="M438.413 240.02C438.413 240.02 423.264 239.107 425.046 249.724C424.859 250.829 425.404 251.928 426.396 252.449C426.396 252.449 426.396 251.666 427.95 251.931C428.494 252.023 429.046 252.05 429.596 252.011C430.339 251.959 431.044 251.667 431.606 251.179C431.606 251.179 435.866 249.422 437.525 242.461C437.525 242.461 438.758 240.944 438.696 240.55L436.144 241.629C436.144 241.629 437.013 243.478 436.329 245.007C436.329 245.007 436.249 241.697 435.755 241.777C435.657 241.777 434.424 242.393 434.424 242.393C434.424 242.393 435.928 245.605 434.794 247.942C434.794 247.942 435.225 243.984 433.955 242.628L432.155 243.682C432.155 243.682 433.912 246.999 432.722 249.705C432.722 249.705 433.03 245.556 431.779 243.935L430.151 245.211C430.151 245.211 431.797 248.478 430.768 250.723C430.768 250.723 430.638 245.889 429.769 245.525C429.151 246.049 428.598 246.645 428.123 247.301C428.123 247.301 429.257 249.675 428.554 250.926C428.554 250.926 428.123 247.708 427.771 247.689C427.771 247.689 426.353 249.823 426.205 251.29C426.279 249.936 426.704 248.625 427.438 247.486C426.618 247.641 425.861 248.033 425.262 248.614C425.262 248.614 425.484 247.104 427.79 246.974C427.79 246.974 428.967 245.353 429.282 245.254C429.282 245.254 426.988 245.063 425.583 245.679C425.583 245.679 426.816 244.255 429.689 244.903L431.298 243.589C431.298 243.589 428.277 243.176 426.982 243.633C426.982 243.633 428.456 242.399 431.711 243.293L433.511 242.245C432.161 241.952 430.779 241.834 429.399 241.894C429.399 241.894 431.02 241.018 434.023 241.968L435.256 241.407C435.256 241.407 433.369 241.031 432.821 240.975C432.272 240.92 432.204 240.766 432.204 240.766C433.4 240.566 434.627 240.703 435.749 241.16C435.749 241.16 438.462 240.186 438.413 240.02Z" fill="#0064AB"/>
<path opacity="0.1" d="M427.981 255.186C433.902 255.186 438.702 254.375 438.702 253.374C438.702 252.373 433.902 251.561 427.981 251.561C422.06 251.561 417.259 252.373 417.259 253.374C417.259 254.375 422.06 255.186 427.981 255.186Z" fill="#0064AB"/>
<path fill-rule="evenodd" clip-rule="evenodd" d="M293.759 401.702C293.603 408.728 288.001 414.432 280.335 414.432C272.559 414.432 266.979 408.636 266.979 401.472L266.982 401.098C267.138 394.072 272.74 388.368 280.407 388.368C288.183 388.368 293.763 394.164 293.763 401.328L293.759 401.702ZM272.778 401.648C272.897 405.857 276.028 409.32 280.407 409.32C284.871 409.32 287.967 405.792 287.967 401.472L287.963 401.152C287.844 396.943 284.713 393.48 280.335 393.48C275.871 393.48 272.775 397.008 272.775 401.328L272.778 401.648ZM314.116 414.432C321.782 414.432 327.384 408.728 327.541 401.702L327.544 401.328C327.544 394.164 321.964 388.368 314.188 388.368C306.521 388.368 300.92 394.072 300.763 401.098L300.76 401.472C300.76 408.636 306.34 414.432 314.116 414.432ZM306.559 401.648C306.678 405.857 309.81 409.32 314.188 409.32C318.652 409.32 321.748 405.792 321.748 401.472L321.744 401.152C321.626 396.943 318.494 393.48 314.116 393.48C309.652 393.48 306.556 397.008 306.556 401.328L306.559 401.648ZM335.657 411.444C335.657 412.992 336.881 414.216 338.429 414.216C339.977 414.216 341.201 412.992 341.201 411.444V406.44H345.413C350.968 406.44 355.445 403.519 355.597 397.883L355.601 397.512C355.601 392.364 351.965 388.8 345.953 388.8H338.429C336.881 388.8 335.657 390.024 335.657 391.572V411.444ZM341.201 393.804V401.508H345.593C348.365 401.508 349.985 399.852 349.985 397.692L349.981 397.397C349.88 395.057 348.173 393.804 345.485 393.804H341.201ZM371.851 414.36C377.188 414.36 380.963 411.653 381.099 406.819L381.103 406.476C381.103 402.176 378.341 400.326 373.427 399L372.227 398.685C368.699 397.742 367.724 397.171 367.677 395.72L367.675 395.532C367.675 394.308 368.791 393.336 370.915 393.336C372.643 393.336 374.371 393.948 376.207 395.028C376.639 395.28 377.071 395.424 377.611 395.424C379.051 395.424 380.203 394.308 380.203 392.868C380.203 391.86 379.67 391.134 379.101 390.749L378.979 390.672C376.711 389.232 374.047 388.44 370.987 388.44C365.934 388.44 362.303 391.353 362.17 395.784L362.167 396.108C362.167 401.016 365.318 402.461 370.228 403.737L371.111 403.968C374.718 404.938 375.553 405.644 375.593 406.914L375.595 407.088C375.595 408.564 374.227 409.464 371.959 409.464C369.511 409.464 367.423 408.6 365.515 407.196C365.155 406.944 364.651 406.692 363.931 406.692C362.491 406.692 361.339 407.808 361.339 409.248C361.339 410.112 361.771 410.904 362.383 411.336C365.191 413.352 368.539 414.36 371.851 414.36ZM391.916 405.648C391.016 405.648 390.368 405.036 390.26 404.064L388.712 390.528C388.604 389.484 389.18 388.692 390.152 388.692H393.68C394.652 388.692 395.228 389.484 395.12 390.528L393.572 404.064C393.464 405.036 392.816 405.648 391.916 405.648ZM388.784 411.084V411.156C388.784 412.884 390.116 414.216 391.916 414.216C393.716 414.216 395.048 412.884 395.048 411.156V411.084C395.048 409.356 393.716 408.024 391.916 408.024C390.116 408.024 388.784 409.356 388.784 411.084ZM145.436 464.816C143.888 464.816 142.664 463.592 142.664 462.044V442.172C142.664 440.624 143.888 439.4 145.436 439.4H152.96C158.972 439.4 162.608 442.964 162.608 448.112L162.604 448.483C162.451 454.119 157.975 457.04 152.42 457.04H148.208V462.044C148.208 463.592 146.984 464.816 145.436 464.816ZM148.208 452.108V444.404H152.492C155.18 444.404 156.887 445.657 156.988 447.997L156.992 448.292C156.992 450.452 155.372 452.108 152.6 452.108H148.208ZM168.922 464.816C167.482 464.816 166.366 463.664 166.366 462.224C166.366 461.828 166.51 461.432 166.69 461.036L175.474 441.2C176.086 439.832 177.202 439.004 178.714 439.004H179.038C180.55 439.004 181.63 439.832 182.242 441.2L191.026 461.036C191.206 461.432 191.314 461.792 191.314 462.152C191.314 463.628 190.162 464.816 188.686 464.816C187.39 464.816 186.526 464.06 186.022 462.908L184.33 458.948H173.242L171.478 463.088C171.01 464.168 170.074 464.816 168.922 464.816ZM175.294 454.052L178.786 445.736L182.278 454.052H175.294ZM218.903 462.512C216.851 463.772 213.863 465.032 210.083 465.032C202.235 465.032 196.835 459.524 196.835 452.072L196.838 451.694C196.995 444.67 202.524 438.968 210.047 438.968C213.863 438.968 216.383 439.832 218.651 441.416C219.191 441.812 219.803 442.568 219.803 443.648C219.803 445.16 218.579 446.384 217.067 446.384C216.275 446.384 215.771 446.096 215.375 445.808L215.135 445.641C213.69 444.662 212.118 444.08 209.867 444.08C205.835 444.08 202.631 447.644 202.631 451.928L202.635 452.264C202.753 456.737 205.885 459.992 210.263 459.992C212.279 459.992 214.079 459.488 215.483 458.48V454.88H211.739C210.407 454.88 209.327 453.836 209.327 452.504C209.327 451.172 210.407 450.092 211.739 450.092H218.075C219.623 450.092 220.847 451.316 220.847 452.864V458.984C220.847 460.604 220.235 461.72 218.903 462.512ZM232.128 464.6H246.276C247.644 464.6 248.76 463.52 248.76 462.152C248.76 460.784 247.644 459.668 246.276 459.668H234.864V454.376H244.476C245.844 454.376 246.96 453.296 246.96 451.928C246.96 450.56 245.844 449.444 244.476 449.444H234.864V444.332H246.096C247.464 444.332 248.58 443.252 248.58 441.884C248.58 440.516 247.464 439.4 246.096 439.4H232.128C230.58 439.4 229.356 440.624 229.356 442.172V461.828C229.356 463.376 230.58 464.6 232.128 464.6ZM273.375 464.816C271.863 464.816 270.639 463.592 270.639 462.08V442.028C270.639 440.48 271.863 439.256 273.411 439.256H273.987C275.319 439.256 276.111 439.904 276.867 440.876L287.559 454.916V441.92C287.559 440.408 288.783 439.184 290.295 439.184C291.807 439.184 293.031 440.408 293.031 441.92V461.972C293.031 463.52 291.807 464.744 290.259 464.744H290.079C288.747 464.744 287.955 464.096 287.199 463.124L276.111 448.58V462.08C276.111 463.592 274.887 464.816 273.375 464.816ZM314.501 465.032C322.167 465.032 327.769 459.328 327.925 452.302L327.929 451.928C327.929 444.764 322.349 438.968 314.573 438.968C306.906 438.968 301.304 444.672 301.148 451.698L301.145 452.072C301.145 459.236 306.725 465.032 314.501 465.032ZM306.944 452.248C307.063 456.457 310.194 459.92 314.573 459.92C319.037 459.92 322.133 456.392 322.133 452.072L322.129 451.752C322.01 447.543 318.879 444.08 314.501 444.08C310.037 444.08 306.941 447.608 306.941 451.928L306.944 452.248ZM340.83 462.044C340.83 463.592 342.054 464.816 343.602 464.816C345.15 464.816 346.374 463.592 346.374 462.044V444.512H351.702C353.106 444.512 354.258 443.36 354.258 441.956C354.258 440.552 353.106 439.4 351.702 439.4H335.502C334.098 439.4 332.946 440.552 332.946 441.956C332.946 443.36 334.098 444.512 335.502 444.512H340.83V462.044ZM378.225 464.816C376.677 464.816 375.453 463.592 375.453 462.044V442.172C375.453 440.624 376.677 439.4 378.225 439.4H392.337C393.741 439.4 394.857 440.516 394.857 441.92C394.857 443.324 393.741 444.44 392.337 444.44H380.997V449.804H390.717C392.121 449.804 393.237 450.92 393.237 452.324C393.237 453.728 392.121 454.844 390.717 454.844H380.997V462.044C380.997 463.592 379.773 464.816 378.225 464.816ZM414.49 465.032C422.157 465.032 427.759 459.328 427.915 452.302L427.918 451.928C427.918 444.764 422.338 438.968 414.562 438.968C406.896 438.968 401.294 444.672 401.138 451.698L401.134 452.072C401.134 459.236 406.714 465.032 414.49 465.032ZM406.934 452.248C407.053 456.457 410.184 459.92 414.562 459.92C419.026 459.92 422.122 456.392 422.122 452.072L422.119 451.752C422 447.543 418.868 444.08 414.49 444.08C410.026 444.08 406.93 447.608 406.93 451.928L406.934 452.248ZM446.544 464.996C453.312 464.996 457.596 461.252 457.596 453.62V441.956C457.596 440.408 456.372 439.184 454.824 439.184C453.276 439.184 452.052 440.408 452.052 441.956V453.836C452.052 457.832 450 459.884 446.616 459.884C443.232 459.884 441.18 457.76 441.18 453.656V441.956C441.18 440.408 439.956 439.184 438.408 439.184C436.86 439.184 435.636 440.408 435.636 441.956V453.8C435.636 461.216 439.776 464.996 446.544 464.996ZM469.165 464.816C467.653 464.816 466.429 463.592 466.429 462.08V442.028C466.429 440.48 467.653 439.256 469.201 439.256H469.777C471.109 439.256 471.901 439.904 472.657 440.876L483.349 454.916V441.92C483.349 440.408 484.573 439.184 486.085 439.184C487.597 439.184 488.821 440.408 488.821 441.92V461.972C488.821 463.52 487.597 464.744 486.049 464.744H485.869C484.537 464.744 483.745 464.096 482.989 463.124L471.901 448.58V462.08C471.901 463.592 470.677 464.816 469.165 464.816ZM498.05 461.828C498.05 463.376 499.274 464.6 500.822 464.6H507.878C515.685 464.6 521.114 459.248 521.267 452.303L521.27 451.928C521.27 444.836 515.798 439.4 507.878 439.4H500.822C499.274 439.4 498.05 440.624 498.05 442.172V461.828ZM503.594 444.404V459.596H507.878C512.414 459.596 515.474 456.536 515.474 452.072L515.471 451.739C515.354 447.414 512.325 444.404 507.878 444.404H503.594Z" fill="#5A5A5A"/>
</svg>
