<svg width="85" height="24" viewBox="0 0 85 24" fill="none" xmlns="http://www.w3.org/2000/svg">
<path d="M24.0075 0.292785C23.719 0.00684205 23.2853 -0.0771555 22.9076 0.0740445L0.628518 9.07404C0.212289 9.24273 -0.0419001 9.66204 0.00570172 10.104C0.0522966 10.5459 0.388494 10.9039 0.831077 10.9838L11.281 12.8599L13.182 23.1788C13.2619 23.616 13.6243 23.9479 14.0719 23.9948C14.1076 23.9979 14.1431 24 14.1774 24C14.5844 24 14.9583 23.7569 15.1152 23.378L24.2294 1.37793C24.3832 1.00593 24.296 0.578042 24.0075 0.292785Z" fill="white"/>
<path d="M16.3475 8.00058C16.0582 7.71566 4.57425 7.42149 4.19538 7.57201L0.63038 9.11624C0.212935 9.28492 -0.0420504 9.70286 0.00572506 10.1434C0.0524241 10.5843 0.389665 10.9413 0.833566 11.0212L11.3151 12.8918L13.2216 23.1819C13.3018 23.6177 13.6653 23.9489 14.1142 23.9955C14.15 23.9986 14.1854 24.0007 14.2201 24.0007C14.6284 24.0007 15.0031 23.7583 15.1607 23.3805L16.9262 18.8578C17.0804 18.4869 16.637 8.28481 16.3475 8.00058Z" fill="#E0E0E0"/>
<path d="M30.2454 19.7739H32.4911V20.1658H30.6839V21.1364H32.2731V21.5174H30.6839V22.9711H30.2454V19.7739ZM32.9661 19.7739H33.3626V22.9711H32.9661V19.7739ZM34.9882 20.5879C35.1556 20.5879 35.3181 20.6273 35.4754 20.7055C35.6323 20.7823 35.7521 20.8824 35.8344 21.0058C35.9139 21.1234 35.9667 21.2606 35.9931 21.4172C36.0167 21.5246 36.0285 21.6956 36.0285 21.9308H34.2983C34.3056 22.1674 34.3622 22.3574 34.4681 22.501C34.5737 22.6433 34.7376 22.7143 34.9594 22.7143C35.1667 22.7143 35.332 22.6467 35.4552 22.512C35.5261 22.4335 35.5757 22.343 35.6052 22.2398H35.9955C35.9851 22.3255 35.9507 22.4211 35.8917 22.5271C35.8344 22.6316 35.7698 22.717 35.6979 22.7839C35.5775 22.9001 35.4282 22.9783 35.2504 23.0191C35.1549 23.042 35.0469 23.0537 34.9264 23.0537C34.6327 23.0537 34.3834 22.9484 34.1793 22.7383C33.9751 22.5264 33.873 22.2305 33.873 21.8503C33.873 21.4759 33.9758 21.1721 34.1817 20.9383C34.3872 20.7048 34.656 20.5879 34.9882 20.5879ZM35.6209 21.6195C35.6045 21.4498 35.567 21.314 35.5084 21.2126C35.3997 21.024 35.2181 20.9297 34.9639 20.9297C34.7817 20.9297 34.6289 20.9948 34.5056 21.1255C34.382 21.2547 34.3168 21.4193 34.3095 21.6195H35.6209ZM37.5458 20.5879C37.7131 20.5879 37.8756 20.6273 38.0329 20.7055C38.1902 20.7823 38.31 20.8824 38.3922 21.0058C38.4714 21.1234 38.5242 21.2606 38.5509 21.4172C38.5742 21.5246 38.586 21.6956 38.586 21.9308H36.8559C36.8632 22.1674 36.9198 22.3574 37.0256 22.501C37.1315 22.6433 37.2954 22.7143 37.5173 22.7143C37.7242 22.7143 37.8895 22.6467 38.0131 22.512C38.0836 22.4335 38.1336 22.343 38.1627 22.2398H38.553C38.5426 22.3255 38.5082 22.4211 38.4495 22.5271C38.3922 22.6316 38.3273 22.717 38.2554 22.7839C38.135 22.9001 37.9857 22.9783 37.8079 23.0191C37.7124 23.042 37.6044 23.0537 37.484 23.0537C37.1902 23.0537 36.9413 22.9484 36.7368 22.7383C36.5326 22.5264 36.4305 22.2305 36.4305 21.8503C36.4305 21.4759 36.5333 21.1721 36.7392 20.9383C36.9447 20.7048 37.2138 20.5879 37.5458 20.5879ZM38.1784 21.6195C38.162 21.4498 38.1245 21.314 38.0659 21.2126C37.9572 21.024 37.7756 20.9297 37.5215 20.9297C37.3395 20.9297 37.1864 20.9948 37.0631 21.1255C36.9395 21.2547 36.8743 21.4193 36.867 21.6195H38.1784ZM39.1998 19.9896H39.6009V20.6403H39.9779V20.9602H39.6009V22.4815C39.6009 22.5627 39.629 22.6169 39.6845 22.6447C39.7154 22.6604 39.7668 22.6687 39.8391 22.6687C39.8581 22.6687 39.8786 22.6687 39.9005 22.6687C39.9227 22.667 39.9484 22.6649 39.9779 22.6622V22.9711C39.9321 22.9841 39.8845 22.9937 39.8345 22.9995C39.7859 23.005 39.7332 23.0081 39.6759 23.0081C39.4908 23.0081 39.3651 22.9615 39.2991 22.8689C39.2328 22.7746 39.1998 22.6526 39.1998 22.5031V20.9602H38.8801V20.6403H39.1998V19.9896ZM41.765 19.7739H42.3931L43.3232 22.477L44.2468 19.7739H44.8683V22.9711H44.4517V21.0843C44.4517 21.0188 44.4531 20.9108 44.4562 20.76C44.459 20.6091 44.4604 20.4473 44.4604 20.2745L43.5371 22.9711H43.1028L42.173 20.2745V20.3726C42.173 20.4507 42.1743 20.5707 42.1771 20.7315C42.1816 20.8913 42.1837 21.0089 42.1837 21.0843V22.9711H41.765V19.7739ZM45.8325 22.3508C45.8325 22.464 45.8742 22.5531 45.9582 22.6186C46.0419 22.6838 46.1408 22.7163 46.2554 22.7163C46.3953 22.7163 46.5304 22.6844 46.6609 22.6207C46.8814 22.5147 46.9918 22.3412 46.9918 22.1006V21.7851C46.9432 21.8153 46.8807 21.8407 46.8043 21.8612C46.7279 21.8815 46.653 21.8959 46.5797 21.9048L46.3394 21.9353C46.1953 21.9542 46.0874 21.9836 46.0155 22.0244C45.8933 22.0927 45.8325 22.2014 45.8325 22.3508ZM46.7932 21.5585C46.8845 21.5472 46.9453 21.5091 46.9762 21.4454C46.9939 21.4107 47.0026 21.3607 47.0026 21.2952C47.0026 21.1618 46.9543 21.0655 46.8571 21.0058C46.7616 20.9448 46.6245 20.9143 46.445 20.9143C46.238 20.9143 46.0912 20.9695 46.0044 21.0799C45.9558 21.1409 45.9242 21.2314 45.9096 21.3518H45.5395C45.5468 21.0644 45.6408 20.8652 45.8214 20.7535C46.0037 20.6403 46.2144 20.5838 46.454 20.5838C46.7318 20.5838 46.9571 20.6359 47.1307 20.7404C47.3026 20.8447 47.3883 21.0072 47.3883 21.228V22.5706C47.3883 22.6114 47.3963 22.644 47.4126 22.6687C47.4303 22.6934 47.4661 22.7057 47.5206 22.7057C47.5383 22.7057 47.5581 22.7047 47.58 22.7033C47.6022 22.7006 47.6258 22.6968 47.6508 22.6927V22.982C47.589 22.9995 47.5418 23.0102 47.5095 23.0146C47.4772 23.0191 47.4331 23.0211 47.3772 23.0211C47.2408 23.0211 47.1415 22.9731 47.08 22.8775C47.0474 22.8267 47.0248 22.7547 47.0116 22.6622C46.9307 22.7664 46.8147 22.8572 46.6634 22.934C46.512 23.0108 46.3453 23.0496 46.163 23.0496C45.944 23.0496 45.7648 22.9841 45.6252 22.8535C45.487 22.7215 45.4179 22.5569 45.4179 22.3594C45.4179 22.1434 45.4863 21.9758 45.6231 21.8568C45.7596 21.7378 45.9391 21.6644 46.161 21.637L46.7932 21.5585ZM48.0859 20.6403H48.4629V20.9712C48.5744 20.8347 48.6928 20.7367 48.8178 20.6774C48.9424 20.6177 49.0813 20.5879 49.2341 20.5879C49.5691 20.5879 49.7955 20.7034 49.9129 20.9342C49.9778 21.0603 50.0101 21.241 50.0101 21.4759V22.9711H49.6066V21.5019C49.6066 21.36 49.5854 21.2451 49.5427 21.158C49.4723 21.013 49.3445 20.9407 49.1591 20.9407C49.0653 20.9407 48.9879 20.9499 48.9278 20.9688C48.8192 21.0007 48.7237 21.0644 48.6414 21.1604C48.5751 21.2372 48.5317 21.3171 48.5112 21.3998C48.4921 21.481 48.4827 21.5979 48.4827 21.7502V22.9711H48.0859V20.6403ZM50.9475 22.3508C50.9475 22.464 50.9895 22.5531 51.0732 22.6186C51.1569 22.6838 51.2562 22.7163 51.3708 22.7163C51.5103 22.7163 51.6454 22.6844 51.7763 22.6207C51.9968 22.5147 52.1068 22.3412 52.1068 22.1006V21.7851C52.0586 21.8153 51.9961 21.8407 51.9197 21.8612C51.8433 21.8815 51.7683 21.8959 51.6947 21.9048L51.4544 21.9353C51.3107 21.9542 51.2027 21.9836 51.1305 22.0244C51.0086 22.0927 50.9475 22.2014 50.9475 22.3508ZM51.9086 21.5585C51.9996 21.5472 52.0607 21.5091 52.0916 21.4454C52.1093 21.4107 52.118 21.3607 52.118 21.2952C52.118 21.1618 52.0693 21.0655 51.9725 21.0058C51.877 20.9448 51.7395 20.9143 51.5603 20.9143C51.3531 20.9143 51.2062 20.9695 51.1197 21.0799C51.0711 21.1409 51.0395 21.2314 51.025 21.3518H50.6545C50.6618 21.0644 50.7559 20.8652 50.9368 20.7535C51.1187 20.6403 51.3298 20.5838 51.569 20.5838C51.8468 20.5838 52.0725 20.6359 52.2457 20.7404C52.4176 20.8447 52.5037 21.0072 52.5037 21.228V22.5706C52.5037 22.6114 52.5117 22.644 52.528 22.6687C52.5454 22.6934 52.5815 22.7057 52.636 22.7057C52.6533 22.7057 52.6735 22.7047 52.6954 22.7033C52.7176 22.7006 52.7408 22.6968 52.7658 22.6927V22.982C52.704 22.9995 52.6572 23.0102 52.6249 23.0146C52.5926 23.0191 52.5485 23.0211 52.4926 23.0211C52.3561 23.0211 52.2568 22.9731 52.195 22.8775C52.1627 22.8267 52.1398 22.7547 52.1266 22.6622C52.0461 22.7664 51.9298 22.8572 51.7784 22.934C51.6274 23.0108 51.4604 23.0496 51.2784 23.0496C51.0593 23.0496 50.8802 22.9841 50.7406 22.8535C50.6024 22.7215 50.5333 22.5569 50.5333 22.3594C50.5333 22.1434 50.6017 21.9758 50.7382 21.8568C50.875 21.7378 51.0541 21.6644 51.276 21.637L51.9086 21.5585ZM54.0342 20.5988C54.2192 20.5988 54.381 20.6438 54.5192 20.7339C54.5939 20.7847 54.6706 20.8587 54.7484 20.9558V20.6619H55.1143V22.7818C55.1143 23.0777 55.0702 23.3112 54.9821 23.4826C54.8175 23.7987 54.5067 23.9568 54.0498 23.9568C53.7957 23.9568 53.5818 23.9002 53.4082 23.7871C53.2349 23.6756 53.138 23.4998 53.1176 23.2604H53.5207C53.5398 23.365 53.578 23.4456 53.6352 23.5022C53.7248 23.5892 53.8661 23.6328 54.0585 23.6328C54.3626 23.6328 54.5616 23.5268 54.6557 23.315C54.7116 23.1902 54.7373 22.9673 54.7328 22.6467C54.6536 22.7657 54.5581 22.8542 54.4463 22.9124C54.3349 22.9704 54.187 22.9995 54.0033 22.9995C53.7477 22.9995 53.5238 22.91 53.3311 22.7318C53.1401 22.5518 53.0446 22.2552 53.0446 21.8417C53.0446 21.4512 53.1408 21.1467 53.3335 20.9276C53.5273 20.7086 53.7609 20.5988 54.0342 20.5988ZM54.7484 21.7958C54.7484 21.5071 54.688 21.2931 54.5675 21.1539C54.447 21.0144 54.2935 20.9448 54.1071 20.9448C53.8279 20.9448 53.6366 21.074 53.5339 21.3322C53.4797 21.47 53.4523 21.6507 53.4523 21.8743C53.4523 22.1369 53.5061 22.3371 53.6134 22.475C53.722 22.6114 53.8675 22.6793 54.0498 22.6793C54.3349 22.6793 54.5352 22.5524 54.6515 22.2987C54.7161 22.1551 54.7484 21.9874 54.7484 21.7958ZM56.7417 20.5879C56.9094 20.5879 57.0715 20.6273 57.2288 20.7055C57.3861 20.7823 57.5059 20.8824 57.5882 21.0058C57.6673 21.1234 57.7205 21.2606 57.7468 21.4172C57.7701 21.5246 57.7819 21.6956 57.7819 21.9308H56.0518C56.0591 22.1674 56.1157 22.3574 56.2216 22.501C56.3275 22.6433 56.4914 22.7143 56.7132 22.7143C56.9201 22.7143 57.0854 22.6467 57.209 22.512C57.2795 22.4335 57.3295 22.343 57.3587 22.2398H57.7489C57.7385 22.3255 57.7041 22.4211 57.6455 22.5271C57.5882 22.6316 57.5232 22.717 57.4514 22.7839C57.3309 22.9001 57.1819 22.9783 57.0042 23.0191C56.9083 23.042 56.8004 23.0537 56.6799 23.0537C56.3862 23.0537 56.1372 22.9484 55.933 22.7383C55.7285 22.5264 55.6265 22.2305 55.6265 21.8503C55.6265 21.4759 55.7292 21.1721 55.9351 20.9383C56.1407 20.7048 56.4098 20.5879 56.7417 20.5879ZM57.3743 21.6195C57.358 21.4498 57.3205 21.314 57.2618 21.2126C57.1531 21.024 56.9715 20.9297 56.7174 20.9297C56.5354 20.9297 56.3823 20.9948 56.2591 21.1255C56.1358 21.2547 56.0702 21.4193 56.0629 21.6195H57.3743ZM58.3163 20.6403H58.7086V20.9712C58.8027 20.8563 58.8881 20.773 58.9645 20.7209C59.095 20.6321 59.2436 20.5879 59.4096 20.5879C59.5978 20.5879 59.7488 20.6338 59.8634 20.725C59.9283 20.7775 59.987 20.8543 60.0398 20.9558C60.128 20.831 60.2318 20.7387 60.3505 20.6794C60.4696 20.6184 60.6033 20.5879 60.7519 20.5879C61.0693 20.5879 61.2852 20.701 61.3998 20.9276C61.4616 21.0494 61.4921 21.2132 61.4921 21.4193V22.9711H61.08V21.3518C61.08 21.1968 61.0404 21.0902 60.9613 21.0319C60.8831 20.9739 60.7877 20.9448 60.6745 20.9448C60.5189 20.9448 60.3846 20.9966 60.2714 21.0994C60.1596 21.2023 60.1037 21.3744 60.1037 21.6151V22.9711H59.7006V21.4498C59.7006 21.2918 59.6815 21.1762 59.6433 21.1039C59.5829 20.9948 59.4704 20.9407 59.3061 20.9407C59.1562 20.9407 59.0194 20.9979 58.8961 21.1124C58.7742 21.227 58.7131 21.4347 58.7131 21.7351V22.9711H58.3163V20.6403ZM63.1046 20.5879C63.2719 20.5879 63.4344 20.6273 63.5914 20.7055C63.7486 20.7823 63.8684 20.8824 63.9507 21.0058C64.0302 21.1234 64.083 21.2606 64.1094 21.4172C64.133 21.5246 64.1448 21.6956 64.1448 21.9308H62.4147C62.422 22.1674 62.4786 22.3574 62.5845 22.501C62.69 22.6433 62.8539 22.7143 63.0758 22.7143C63.283 22.7143 63.4483 22.6467 63.5716 22.512C63.642 22.4335 63.692 22.343 63.7216 22.2398H64.1115C64.1014 22.3255 64.0667 22.4211 64.008 22.5271C63.9507 22.6316 63.8861 22.717 63.8143 22.7839C63.6938 22.9001 63.5445 22.9783 63.3667 23.0191C63.2712 23.042 63.1632 23.0537 63.0428 23.0537C62.7487 23.0537 62.4997 22.9484 62.2956 22.7383C62.0914 22.5264 61.9893 22.2305 61.9893 21.8503C61.9893 21.4759 62.0921 21.1721 62.2977 20.9383C62.5036 20.7048 62.7723 20.5879 63.1046 20.5879ZM63.7368 21.6195C63.7209 21.4498 63.6834 21.314 63.6247 21.2126C63.5157 21.024 63.3344 20.9297 63.0803 20.9297C62.898 20.9297 62.7452 20.9948 62.6216 21.1255C62.4983 21.2547 62.4331 21.4193 62.4254 21.6195H63.7368ZM64.6791 20.6403H65.0559V20.9712C65.1677 20.8347 65.2861 20.7367 65.4107 20.6774C65.5357 20.6177 65.6746 20.5879 65.8274 20.5879C66.1624 20.5879 66.3888 20.7034 66.5061 20.9342C66.5707 21.0603 66.603 21.241 66.603 21.4759V22.9711H66.1999V21.5019C66.1999 21.36 66.1784 21.2451 66.136 21.158C66.0655 21.013 65.9374 20.9407 65.7524 20.9407C65.6583 20.9407 65.5812 20.9499 65.5211 20.9688C65.4121 21.0007 65.3166 21.0644 65.2343 21.1604C65.1684 21.2372 65.125 21.3171 65.1045 21.3998C65.0854 21.481 65.0757 21.5979 65.0757 21.7502V22.9711H64.6791V20.6403ZM67.3162 19.9896H67.7172V20.6403H68.0939V20.9602H67.7172V22.4815C67.7172 22.5627 67.745 22.6169 67.8009 22.6447C67.8318 22.6604 67.8832 22.6687 67.9554 22.6687C67.9745 22.6687 67.995 22.6687 68.0168 22.6687C68.0391 22.667 68.0647 22.6649 68.0939 22.6622V22.9711C68.0484 22.9841 68.0009 22.9937 67.9509 22.9995C67.9023 23.005 67.8495 23.0081 67.7922 23.0081C67.6071 23.0081 67.4814 22.9615 67.4151 22.8689C67.3492 22.7746 67.3162 22.6526 67.3162 22.5031V20.9602H66.9964V20.6403H67.3162V19.9896ZM70.1789 21.9394C70.1893 22.1208 70.2323 22.2682 70.3091 22.3814C70.4542 22.5932 70.7108 22.6992 71.0781 22.6992C71.2427 22.6992 71.3924 22.6759 71.5278 22.6292C71.7892 22.5394 71.9201 22.3783 71.9201 22.1462C71.9201 21.972 71.8649 21.8482 71.7548 21.7742C71.643 21.7015 71.4681 21.6384 71.2302 21.5849L70.7917 21.4868C70.5049 21.4231 70.3025 21.3524 70.1834 21.2756C69.9775 21.1423 69.8747 20.9427 69.8747 20.6774C69.8747 20.39 69.9754 20.1542 70.1768 19.97C70.3778 19.7856 70.6629 19.6934 71.032 19.6934C71.3712 19.6934 71.6594 19.7746 71.8958 19.9371C72.1336 20.0983 72.2527 20.3564 72.2527 20.712H71.8406C71.8187 20.5409 71.7715 20.4096 71.6996 20.318C71.566 20.1514 71.3389 20.0678 71.0184 20.0678C70.7601 20.0678 70.574 20.1216 70.4611 20.2289C70.348 20.3362 70.2914 20.461 70.2914 20.6033C70.2914 20.76 70.3573 20.8745 70.4896 20.9472C70.5764 20.9935 70.7726 21.0514 71.0781 21.121L71.5319 21.2235C71.751 21.2729 71.9201 21.3401 72.0388 21.4258C72.2447 21.5753 72.3475 21.7923 72.3475 22.0766C72.3475 22.4307 72.217 22.6838 71.9552 22.836C71.6951 22.9886 71.3924 23.0647 71.0472 23.0647C70.6448 23.0647 70.3296 22.9632 70.1018 22.7599C69.874 22.5583 69.7622 22.2847 69.7667 21.9394H70.1789ZM74.3696 20.6403H74.8082C74.7523 20.7898 74.6283 21.1306 74.4356 21.6631C74.2919 22.0635 74.1714 22.3899 74.0742 22.6426C73.845 23.2375 73.6836 23.5999 73.5895 23.7305C73.4954 23.8611 73.3339 23.9266 73.1044 23.9266C73.0489 23.9266 73.0055 23.9242 72.9746 23.9201C72.9451 23.9156 72.9082 23.9078 72.8645 23.8961V23.5392C72.9332 23.558 72.9832 23.5697 73.0141 23.5738C73.045 23.5783 73.0721 23.5803 73.0957 23.5803C73.1693 23.5803 73.2228 23.568 73.2565 23.5433C73.2919 23.5203 73.3214 23.4912 73.3447 23.4566C73.352 23.4449 73.3787 23.3852 73.4242 23.2779C73.4697 23.1706 73.5027 23.0907 73.5231 23.0386L72.6506 20.6403H73.1003L73.7329 22.538L74.3696 20.6403ZM75.4331 22.2398C75.4446 22.3704 75.4779 22.4705 75.5321 22.5401C75.6321 22.6663 75.8053 22.7294 76.0522 22.7294C76.1991 22.7294 76.3286 22.6982 76.44 22.6358C76.5518 22.572 76.6077 22.4743 76.6077 22.3423C76.6077 22.2422 76.5629 22.1657 76.4734 22.1136C76.4161 22.0817 76.3029 22.0447 76.1338 22.0025L75.8185 21.9243C75.6175 21.875 75.4689 21.8198 75.3734 21.7587C75.2029 21.6528 75.1179 21.5064 75.1179 21.3192C75.1179 21.0987 75.1981 20.9201 75.3581 20.784C75.5196 20.6475 75.7362 20.5793 76.0081 20.5793C76.3636 20.5793 76.6202 20.6822 76.7775 20.8882C76.8758 21.0188 76.9237 21.1598 76.9206 21.3106H76.5459C76.5386 21.2222 76.507 21.1416 76.4511 21.0689C76.3602 20.966 76.2022 20.9143 75.9772 20.9143C75.8276 20.9143 75.7137 20.9427 75.6359 20.9993C75.5595 21.0559 75.5213 21.1306 75.5213 21.2235C75.5213 21.325 75.572 21.4063 75.673 21.4673C75.7321 21.5036 75.8185 21.5355 75.9335 21.563L76.1956 21.626C76.4806 21.6943 76.6716 21.7604 76.7685 21.8242C76.923 21.9243 77.0001 22.0817 77.0001 22.2963C77.0001 22.5038 76.9199 22.6831 76.7598 22.8339C76.6011 22.9848 76.3588 23.0602 76.0324 23.0602C75.6814 23.0602 75.4321 22.982 75.2852 22.8254C75.1397 22.667 75.062 22.4719 75.0515 22.2398H75.4331ZM77.5785 19.9896H77.9795V20.6403H78.3566V20.9602H77.9795V22.4815C77.9795 22.5627 78.0077 22.6169 78.0632 22.6447C78.0941 22.6604 78.1455 22.6687 78.2177 22.6687C78.2368 22.6687 78.2573 22.6687 78.2792 22.6687C78.3014 22.667 78.3271 22.6649 78.3566 22.6622V22.9711C78.3108 22.9841 78.2632 22.9937 78.2132 22.9995C78.1646 23.005 78.1118 23.0081 78.0545 23.0081C77.8695 23.0081 77.7438 22.9615 77.6778 22.8689C77.6115 22.7746 77.5785 22.6526 77.5785 22.5031V20.9602H77.2591V20.6403H77.5785V19.9896ZM79.7836 20.5879C79.951 20.5879 80.1135 20.6273 80.2704 20.7055C80.4277 20.7823 80.5475 20.8824 80.6297 21.0058C80.7093 21.1234 80.762 21.2606 80.7884 21.4172C80.812 21.5246 80.8238 21.6956 80.8238 21.9308H79.0937C79.101 22.1674 79.1576 22.3574 79.2635 22.501C79.369 22.6433 79.5329 22.7143 79.7548 22.7143C79.9621 22.7143 80.1273 22.6467 80.2506 22.512C80.3211 22.4335 80.3711 22.343 80.4006 22.2398H80.7905C80.7804 22.3255 80.7457 22.4211 80.687 22.5271C80.6298 22.6316 80.5652 22.717 80.4933 22.7839C80.3728 22.9001 80.2235 22.9783 80.0457 23.0191C79.9503 23.042 79.8423 23.0537 79.7218 23.0537C79.4281 23.0537 79.1788 22.9484 78.9746 22.7383C78.7705 22.5264 78.6684 22.2305 78.6684 21.8503C78.6684 21.4759 78.7712 21.1721 78.9767 20.9383C79.1826 20.7048 79.4513 20.5879 79.7836 20.5879ZM80.4159 21.6195C80.3999 21.4498 80.3624 21.314 80.3037 21.2126C80.195 21.024 80.0135 20.9297 79.7593 20.9297C79.577 20.9297 79.4243 20.9948 79.3006 21.1255C79.1774 21.2547 79.1121 21.4193 79.1048 21.6195H80.4159ZM81.3582 20.6403H81.7505V20.9712C81.8446 20.8563 81.9297 20.773 82.0061 20.7209C82.137 20.6321 82.2852 20.5879 82.4512 20.5879C82.6394 20.5879 82.7907 20.6338 82.9053 20.725C82.9699 20.7775 83.0286 20.8543 83.0817 20.9558C83.1699 20.831 83.2734 20.7387 83.3925 20.6794C83.5116 20.6184 83.6452 20.5879 83.7935 20.5879C84.1108 20.5879 84.3268 20.701 84.4414 20.9276C84.5032 21.0494 84.5341 21.2132 84.5341 21.4193V22.9711H84.1219V21.3518C84.1219 21.1968 84.0824 21.0902 84.0028 21.0319C83.9251 20.9739 83.8296 20.9448 83.7164 20.9448C83.5605 20.9448 83.4261 20.9966 83.313 21.0994C83.2015 21.2023 83.1456 21.3744 83.1456 21.6151V22.9711H82.7421V21.4498C82.7421 21.2918 82.723 21.1762 82.6849 21.1039C82.6248 20.9948 82.5123 20.9407 82.3477 20.9407C82.1977 20.9407 82.0613 20.9979 81.9377 21.1124C81.8158 21.227 81.7547 21.4347 81.7547 21.7351V22.9711H81.3582V20.6403Z" fill="white"/>
<path d="M39.7807 2.44764H32.7647V5.62559H38.9074V8.02559H32.7647V13.8195H29.8596V0.0195312H39.7807V2.44764Z" fill="white"/>
<path d="M41.5848 0H44.2902V13.8188H41.5848V0Z" fill="white"/>
<path d="M55.7969 10.8189C55.7275 11.425 55.4077 12.0405 54.8379 12.6655C53.9519 13.6594 52.7113 14.1562 51.1166 14.1562C49.8 14.1562 48.6386 13.7376 47.6324 12.9C46.6258 12.0624 46.1227 10.6999 46.1227 8.81247C46.1227 7.04367 46.5752 5.68767 47.4803 4.74378C48.3917 3.7999 49.5722 3.32812 51.0215 3.32812C51.8822 3.32812 52.6575 3.48755 53.3474 3.80641C54.0373 4.12492 54.607 4.62824 55.0563 5.31567C55.4615 5.92184 55.724 6.62504 55.8445 7.42493C55.9139 7.89361 55.9424 8.56869 55.9299 9.44984H48.8476C48.8855 10.475 49.2115 11.1936 49.8253 11.6064C50.1986 11.8625 50.6482 11.9908 51.1735 11.9908C51.7305 11.9908 52.1829 11.8344 52.5311 11.5217C52.721 11.353 52.8887 11.1189 53.0342 10.8189H55.7969ZM53.1196 7.68755C53.0755 6.98127 52.8571 6.44675 52.4644 6.08435C52.0784 5.71578 51.5975 5.53132 51.0215 5.53132C50.3951 5.53132 49.9076 5.72504 49.5594 6.11247C49.2177 6.4999 49.0025 7.02515 48.9139 7.68755H53.1196Z" fill="white"/>
<path d="M66.62 10.8189C66.5502 11.425 66.2308 12.0405 65.661 12.6655C64.7749 13.6594 63.5344 14.1562 61.9397 14.1562C60.6231 14.1562 59.4616 13.7376 58.4551 12.9C57.4489 12.0624 56.9458 10.6999 56.9458 8.81247C56.9458 7.04367 57.3982 5.68767 58.3034 4.74378C59.2148 3.7999 60.3953 3.32812 61.8445 3.32812C62.7052 3.32812 63.4806 3.48755 64.1704 3.80641C64.8603 4.12492 65.4301 4.62824 65.8794 5.31567C66.2846 5.92184 66.5471 6.62504 66.6675 7.42493C66.737 7.89361 66.7655 8.56869 66.753 9.44984H59.6703C59.7085 10.475 60.0345 11.1936 60.6484 11.6064C61.0216 11.8625 61.4713 11.9908 61.9966 11.9908C62.5535 11.9908 63.0059 11.8344 63.3542 11.5217C63.5441 11.353 63.7118 11.1189 63.8573 10.8189H66.62ZM63.9427 7.68755C63.8982 6.98127 63.6802 6.44675 63.2875 6.08435C62.9014 5.71578 62.4205 5.53132 61.8445 5.53132C61.2178 5.53132 60.7307 5.72504 60.3824 6.11247C60.0408 6.4999 59.8255 7.02515 59.737 7.68755H63.9427Z" fill="white"/>
<path d="M73.3228 11.9156V13.9124L72.0409 13.9594C70.7625 14.0029 69.8889 13.7842 69.4206 13.3032C69.1168 12.997 68.965 12.5249 68.965 11.8875V5.59678H67.522V3.69358H68.965V0.84375H71.6423V3.69358H73.3228V5.59678H71.6423V10.9968C71.6423 11.4157 71.6961 11.678 71.8038 11.7843C71.9114 11.8844 72.2402 11.9345 72.7909 11.9345C72.8732 11.9345 72.9589 11.9345 73.0475 11.9345C73.1422 11.928 73.2339 11.9218 73.3228 11.9156Z" fill="white"/>
<path d="M83.69 4.8932C84.5636 5.97457 85 7.25274 85 8.72771C85 10.2277 84.5636 11.5121 83.69 12.5807C82.8164 13.6433 81.4905 14.1747 79.7121 14.1747C77.9337 14.1747 76.6077 13.6433 75.7341 12.5807C74.8606 11.5121 74.4241 10.2277 74.4241 8.72771C74.4241 7.25274 74.8606 5.97457 75.7341 4.8932C76.6077 3.81217 77.9337 3.27148 79.7121 3.27148C81.4905 3.27148 82.8164 3.81217 83.69 4.8932ZM79.7027 5.53091C78.9114 5.53091 78.3007 5.80897 77.8702 6.36508C77.4462 6.91537 77.2341 7.70257 77.2341 8.72771C77.2341 9.75285 77.4462 10.5435 77.8702 11.0996C78.3007 11.6557 78.9114 11.9341 79.7027 11.9341C80.4936 11.9341 81.1012 11.6557 81.5255 11.0996C81.9495 10.5435 82.1616 9.75285 82.1616 8.72771C82.1616 7.70257 81.9495 6.91537 81.5255 6.36508C81.1012 5.80897 80.4936 5.53091 79.7027 5.53091Z" fill="white"/>
<path fill-rule="evenodd" clip-rule="evenodd" d="M80.1519 3.28422L81.8744 5.2697C83.3511 6.97267 83.3511 9.48581 81.8744 11.1888L79.2926 14.1655C78.0066 14.101 76.9774 13.7348 76.2056 13.0666L77.8896 11.125C78.3187 11.665 78.9232 11.9352 79.7027 11.9352C80.4936 11.9352 81.1012 11.6568 81.5255 11.1007C81.9494 10.5446 82.1616 9.75393 82.1616 8.72878C82.1616 7.70364 81.9494 6.91644 81.5255 6.36616C81.1012 5.81004 80.4936 5.53198 79.7027 5.53198C79.1819 5.53198 78.7395 5.65233 78.3749 5.89336L76.7382 4.00593C77.5246 3.51702 78.5163 3.27256 79.712 3.27256C79.862 3.27256 80.0085 3.27633 80.1519 3.28422ZM60.9241 11.7662L59.3905 13.5346C59.0651 13.3601 58.7533 13.1489 58.4551 12.9007C57.9537 12.4834 57.577 11.9355 57.3256 11.2574L59.096 9.21564C59.5884 8.64821 59.5884 7.81027 59.096 7.24284L57.6697 5.59816C57.8478 5.28342 58.0593 4.99884 58.3034 4.74444C58.7929 4.2377 59.3599 3.86673 60.0047 3.63222L61.4251 5.2697C61.5011 5.35747 61.573 5.4473 61.6414 5.53919C61.1116 5.57725 60.6921 5.76856 60.3824 6.11313C60.0408 6.50056 59.8255 7.02581 59.737 7.68821H62.5C62.5712 8.27656 62.5257 8.87621 62.3643 9.4505H59.6703C59.7085 10.4756 60.0345 11.1943 60.6484 11.6071C60.7359 11.6671 60.8279 11.7202 60.9241 11.7662ZM38.9075 7.66833V5.62559H37.2443L38.6467 7.24284C38.7592 7.37279 38.8463 7.51678 38.9075 7.66833ZM34.4879 2.44764H38.528L36.4222 0.0195312H32.3821L34.4879 2.44764ZM41.5848 10.2898V6.16867C42.2497 7.4609 42.2497 8.99758 41.5848 10.2898Z" fill="#E0E0E0"/>
</svg>
