<svg width="42" height="22" viewBox="0 0 42 22" fill="none" xmlns="http://www.w3.org/2000/svg">
<g clip-path="url(#clip0_3146_19529)">
<path d="M40.361 17.8098C40.0798 17.7299 39.2114 17.5031 38.9647 17.2869C38.8175 17.1585 38.7237 17.0141 38.7237 16.8035C38.7237 16.6719 38.8463 16.0771 39.7788 16.0836C39.9729 16.0852 40.5461 16.1409 40.9136 16.5468L41.9885 15.3936C41.2837 14.8416 40.2105 14.6641 39.8084 14.6641C38.7747 14.6641 38.176 15.0458 37.9252 15.2362C37.6736 15.4267 37.1144 15.8778 37.0963 16.9318C37.084 17.6508 37.3668 18.3319 38.764 18.7855C39.0494 18.8783 40.0214 19.231 40.1859 19.352C40.3495 19.4739 40.4375 19.6393 40.4317 19.8499C40.4194 20.2978 40.0033 20.5795 39.3471 20.5795C39.0576 20.5795 38.3561 20.4665 37.9811 19.9185L36.866 21.121C37.2698 21.5301 37.9894 21.9611 39.2566 21.9982C39.6242 22.0095 41.907 21.9982 41.9992 19.7014C42.0238 19.0655 41.7936 18.2149 40.361 17.8098Z" fill="white"/>
<path d="M24.0612 21.8446H28.8333V20.2838H25.6516V19.1128H27.2429V17.5521H25.6516V16.3811H28.8333V14.8203H24.0612V21.8446Z" fill="white"/>
<path d="M17.1419 14.8047H14.7563V21.8289H16.3467V20.2682H17.1419C18.6789 20.2682 19.9256 19.0455 19.9256 17.5364C19.9256 16.0281 18.6797 14.8047 17.1419 14.8047ZM17.1419 18.7074H16.3467V16.3663H17.1419C17.7998 16.3663 18.3352 16.8916 18.3352 17.5372C18.3352 18.1828 17.7998 18.7074 17.1419 18.7074Z" fill="white"/>
<path d="M22.6295 14.8203H21.0391V21.8446H22.6295V14.8203Z" fill="white"/>
<path d="M9.66344 14.8047L7.05823 21.8289H8.75063L10.5096 17.0869L11.6897 20.2682H10.5096L9.9307 21.8289H13.9611L11.3558 14.8047H9.66344Z" fill="white"/>
<path d="M34.478 19.1411L31.9361 14.8203H30.0989V21.8446H31.6894V17.5238L34.2313 21.8446H36.0684V14.8203H34.478V19.1411Z" fill="white"/>
<path d="M22.7701 4.68359H19.2751L14.2629 11.7078C16.4536 11.7078 18.5062 10.6587 19.7628 8.89782L21.0226 7.13288L22.2825 8.89782C23.539 10.6587 25.5916 11.7078 27.7824 11.7078L22.7701 4.68359Z" fill="#2E8DCC"/>
<path d="M21.0235 3.43465C21.9899 3.43465 22.7734 2.66578 22.7734 1.71733C22.7734 0.768873 21.9899 0 21.0235 0C20.057 0 19.2735 0.768873 19.2735 1.71733C19.2735 2.66578 20.057 3.43465 21.0235 3.43465Z" fill="#2E8DCC"/>
<path d="M6.66517 14.8203H4.75566L3.33299 16.9218L1.9095 14.8203H0L2.37742 18.3324L0 21.8446H1.9095L3.33299 19.7423L4.75566 21.8446H6.66517L4.28774 18.3324L6.66517 14.8203Z" fill="white"/>
</g>
<defs>
<clipPath id="clip0_3146_19529">
<rect width="42" height="22" fill="white"/>
</clipPath>
</defs>
</svg>
